<svg width="402" height="404" viewBox="0 0 402 404" fill="none" xmlns="http://www.w3.org/2000/svg">
<g clip-path="url(#clip0_4279_400)">
<path d="M326.702 390.13C298.876 408.308 267.858 404.072 257.456 402.171C279.305 365.031 283.976 335.203 284.005 314.399C284.005 303.474 282.743 297.091 282.337 279.986C281.583 248.852 284.658 223.522 287.429 206.751C288.822 196.595 294.175 167.681 318.578 142.945C350.654 110.433 391.523 109.621 399.589 109.621C389.753 124.085 384.371 136.663 381.353 144.962C369.399 177.822 368.528 215.296 368.528 215.296C376.638 312.745 360.331 347.956 360.331 347.956C355.152 359.127 346.534 377.174 326.702 390.13Z" fill="url(#paint0_linear_4279_400)"/>
<path d="M368.862 208.767C369.674 195.783 371.937 179.142 377.711 160.529C384.487 138.709 393.772 121.633 401.562 109.621C391.204 109.041 366.352 109.07 340.789 124.056C304.258 145.47 293.334 181.565 291.1 189.661L320.115 211.814L328.225 182.885L350.03 211.451L352.163 185.918C357.734 193.534 363.305 201.151 368.862 208.767Z" fill="#CECDC9"/>
<path d="M308.277 260.996C308.727 253.495 310.453 246.154 312.601 238.973C312.455 237.043 312.862 230.761 313.471 227.41C314.429 231.356 314.893 235.346 315.212 239.379C313.616 246.793 311.541 254.134 308.263 260.996H308.277Z" fill="#C74D00"/>
<path d="M324.438 302.648C324.888 295.147 326.615 287.806 328.762 280.625C328.617 278.695 329.023 272.413 329.632 269.062C330.604 273.008 331.054 276.998 331.373 281.031C329.777 288.444 327.703 295.785 324.424 302.648H324.438Z" fill="#C74D00"/>
<path d="M351.64 262.2C352.09 254.699 353.817 247.358 355.964 240.177C355.819 238.247 356.225 231.966 356.834 228.614C357.792 232.56 358.256 236.55 358.575 240.583C356.979 247.997 354.905 255.338 351.626 262.2H351.64Z" fill="#C74D00"/>
<path d="M339.817 334.275C340.267 326.775 341.993 319.434 344.141 312.252C343.996 310.323 344.402 304.041 345.011 300.689C345.969 304.636 346.433 308.625 346.752 312.658C345.156 320.072 343.082 327.413 339.803 334.275H339.817Z" fill="#C74D00"/>
<path d="M299.064 349.9C299.514 342.4 301.24 335.059 303.388 327.877C303.243 325.948 303.649 319.666 304.258 316.314C305.216 320.261 305.68 324.25 305.999 328.283C304.403 335.697 302.329 343.038 299.05 349.9H299.064Z" fill="#C74D00"/>
<path d="M304.519 388.81C306.986 382.369 311.918 373.853 315.226 369.515C316.488 365.714 317.896 362 319.753 358.431C319.462 362.493 318.679 366.424 317.751 370.371C313.949 376.928 309.728 383.283 304.505 388.81H304.519Z" fill="#C74D00"/>
<path d="M308.756 171.265C311.628 167.304 314.704 163.518 317.838 159.789L319.724 160.369C320.797 165.607 321.682 170.888 322.553 176.168L319.956 175.516C321.74 173.194 323.481 170.844 325.295 168.566C327.094 166.26 328.936 163.982 330.808 161.733L332.563 161.907C333.405 163.924 334.217 165.94 335.001 167.986C335.784 170.017 336.553 172.077 337.249 174.152C334.914 170.452 332.781 166.637 330.706 162.792L332.462 162.966C329.197 167.826 325.759 172.556 322.277 177.257L319.68 176.604C319.303 173.949 318.882 171.308 318.534 168.668C318.2 166.013 317.838 163.358 317.562 160.703L319.448 161.283C315.995 164.707 312.47 168.088 308.756 171.279V171.265Z" fill="#BDA497"/>
<path d="M355.834 139.449C356.182 134.067 357.473 128.8 358.982 123.65L360.912 125.391C358.648 126.29 356.356 127.103 354.02 127.814C345.388 130.295 345.258 130.004 353.193 125.768C355.37 124.651 357.575 123.636 359.823 122.707L361.753 124.448C360.23 129.598 358.46 134.72 355.834 139.435V139.449Z" fill="#BDA497"/>
<path d="M364.219 175.095C362.507 169.974 361.709 164.62 361.172 159.267L363.624 160.152C360.055 163.518 356.385 166.724 352.163 169.292C353.498 167.188 355.036 165.273 356.632 163.416C358.213 161.559 359.896 159.789 361.622 158.077L364.074 158.962C364.611 164.301 364.886 169.712 364.234 175.08L364.219 175.095Z" fill="#BDA497"/>
<path d="M228.499 338.961H176.648V394.599H228.499V338.961Z" fill="#BB4320"/>
<path d="M94.3015 394.599L109.68 391.596L117.398 297.396L113.626 245.69L82.1875 244.805L94.3015 394.599Z" fill="#BB4320"/>
<path d="M87.8601 316.909L93.7067 391.218C89.601 392.205 89.2383 392.8 86.6124 393.569C79.7502 395.6 81.0559 395.716 79.7357 397.225C77.603 399.647 81.0269 402.389 81.0269 402.389L111.218 401.171L115.628 318.563L87.8601 316.909Z" fill="#54292A"/>
<path d="M293.857 394.599C318.012 374.563 291.376 306.057 275.171 275.852C268.395 263.201 242.571 216.602 188.356 191.997C178.824 187.673 170.482 184.975 164.577 183.292L165.288 136.185L55.2461 136.925L57.4368 234.389C79.155 269.44 117.949 320.768 182.19 359.635C208.942 375.826 269.919 414.446 293.871 394.584L293.857 394.599Z" fill="url(#paint1_linear_4279_400)"/>
<path d="M83.5365 271.775C74.237 259.328 64.9375 246.865 55.6379 234.418L53.4473 136.954L143.962 136.345C146.254 162.024 119.458 184.409 121.75 210.088" fill="#BB4320"/>
<path d="M69.4637 135.59L71.727 232.822C72.8295 244.356 75.3539 254.366 78.4296 262.926C87.3664 287.748 196.349 381.106 202.936 382.964C203.574 368.992 202.298 333.521 202.936 319.55L220.984 300.53L183.263 301.168L175.85 279.566L142.96 269.57L146.834 229.92L121.692 235.404L154.248 182.044L140.378 181.043L158.76 135.576H69.4492L69.4637 135.59Z" fill="#F1DFD2"/>
<path d="M211.22 363.16L200.92 385.023L166.435 353.715L225.598 298.658L211.22 363.16Z" fill="#CECDC9"/>
<path d="M72.467 241.178L135.388 192.374L158.76 135.576L69.4639 160.384L72.467 241.178Z" fill="#CECDC9"/>
<path d="M101.642 227.164C101.816 228.542 101.903 229.906 101.903 231.284C101.903 231.966 102.15 232.691 101.816 233.301C101.497 233.925 101.076 234.519 100.162 235.027L99.872 234.969C98.6823 233.446 98.7549 232.314 99.6108 230.849C100.104 229.572 100.684 228.325 101.352 227.106L101.642 227.164Z" fill="#C28166"/>
<path d="M85.2339 215.688C84.3489 216.762 83.4204 217.763 82.4048 218.706C81.9116 219.17 81.5489 219.852 80.8815 220.026C80.2141 220.214 79.4887 220.316 78.4877 220.011L78.3281 219.765C78.6183 217.85 79.4887 217.139 81.1572 216.747C82.4338 216.225 83.7395 215.79 85.0743 215.441L85.2339 215.688Z" fill="#F1DFD2"/>
<path d="M114.583 225.829C115.425 226.932 116.208 228.063 116.89 229.253C117.238 229.833 117.819 230.341 117.833 231.037C117.877 231.734 117.804 232.459 117.282 233.359L117.006 233.46C115.207 232.749 114.699 231.734 114.699 230.036C114.467 228.687 114.351 227.309 114.308 225.931L114.583 225.829Z" fill="#C28166"/>
<path d="M119.748 218.851C120.981 219.46 122.185 220.157 123.317 220.926C123.883 221.303 124.623 221.492 124.956 222.115C125.305 222.725 125.566 223.407 125.479 224.451L125.276 224.654C123.346 224.799 122.446 224.117 121.707 222.58C120.909 221.462 120.198 220.273 119.545 219.054L119.748 218.851Z" fill="#C28166"/>
<path d="M125.406 211.844C126.784 211.727 128.162 211.684 129.541 211.742C130.222 211.771 130.948 211.553 131.557 211.902C132.166 212.235 132.747 212.685 133.226 213.614L133.168 213.889C131.601 215.021 130.469 214.905 129.033 213.991C127.771 213.454 126.552 212.816 125.362 212.105L125.42 211.815L125.406 211.844Z" fill="#C28166"/>
<path d="M105.139 262.563C104.762 263.898 104.327 265.203 103.775 266.466C103.514 267.089 103.456 267.858 102.919 268.294C102.383 268.743 101.759 269.135 100.729 269.251L100.482 269.091C99.9743 267.22 100.482 266.219 101.846 265.189C102.803 264.202 103.819 263.274 104.907 262.403L105.154 262.563H105.139Z" fill="#C28166"/>
<path d="M113.829 262.52C114.076 263.883 114.25 265.247 114.308 266.625C114.337 267.307 114.627 268.018 114.337 268.642C114.061 269.28 113.655 269.904 112.785 270.455L112.494 270.412C111.218 268.961 111.232 267.829 112.016 266.306C112.436 265 112.959 263.724 113.539 262.476L113.829 262.52Z" fill="#C28166"/>
<path d="M122.824 262.868C123.752 263.898 124.608 264.986 125.377 266.117C125.754 266.683 126.378 267.133 126.451 267.829C126.538 268.526 126.523 269.251 126.073 270.194L125.812 270.31C123.97 269.73 123.389 268.758 123.259 267.06C122.94 265.726 122.708 264.362 122.562 262.984L122.824 262.868Z" fill="#C28166"/>
<path d="M34.1805 146.384C67.0263 159.47 99.8721 172.556 132.718 185.642C151.694 154.073 170.67 122.504 189.661 90.9496L127.959 45.9897L86.9601 60.6137L42.2179 76.5578L34.166 146.384H34.1805Z" fill="#E26225"/>
<path d="M1.71214 61.1502C1.36395 60.0476 4.52666 57.9584 5.81786 58.3646L70.8856 74.657L38.388 139.652C33.0636 132.717 27.6377 124.782 22.4439 115.801L1.71214 61.1502Z" fill="#54292A"/>
<path d="M13.725 81.9983V82.0273C13.4929 82.1434 4.6721 70.4791 7.34155 66.3734C8.70529 64.2842 15.9447 65.6044 30.38 68.3464C36.2847 69.4635 38.2288 70.0148 38.4464 71.0884C38.664 72.2345 36.2702 74.4397 23.039 79.1257C29.8577 78.7776 35.5013 78.6035 39.7086 78.5019C42.2619 78.4439 45.3376 78.3858 45.8164 79.677C46.1936 80.7216 44.6993 82.1724 43.4806 83.3185C41.8702 84.8418 39.1282 86.96 34.7759 88.3963C44.1189 89.6584 53.462 90.9351 62.805 92.1973L46.5998 124.608L23.039 102.164L13.7395 81.9838L13.725 81.9983Z" fill="#CECDC9"/>
<path d="M50.3573 101.99C47.2672 104.819 43.4516 106.618 39.52 107.952C37.1987 108.243 34.834 107.952 32.5127 107.416C34.5438 106.386 36.6764 105.82 38.8526 105.385L38.4754 105.486C42.1894 103.644 46.1501 102.193 50.3283 101.99H50.3573Z" fill="#BDA497"/>
<path d="M1.01586 55.6664C0.870784 78.1971 4.55578 97.478 8.80658 112.363C8.89362 113.495 9.64803 114.467 10.7361 114.829C11.7517 115.178 12.9558 114.989 13.8263 114.075C14.5517 113.132 16.3507 111.217 18.0191 109.505C19.3103 108.17 20.5289 106.966 21.1092 106.429C22.4004 105.211 22.0813 104.195 23.3289 102.802C25.273 100.641 26.6802 100.8 28.8709 98.6531C30.7424 96.8251 31.6854 95.5775 33.1362 93.8365C34.9787 91.6458 37.7352 88.5267 41.6814 84.7401C44.9166 80.2572 48.1373 75.7598 51.3726 71.2768L5.16511 54.0415L1.01586 55.6664Z" fill="#CECDC9"/>
<path d="M0.000237747 54.4912C-0.144841 77.0219 3.54015 96.3028 7.79095 111.188C7.878 112.32 8.63241 113.292 9.72049 113.654C10.736 114.002 11.9402 113.814 12.8107 112.9L40.6512 83.5795L50.3425 70.1162L4.14948 52.8809L0.000237747 54.4912Z" fill="#542918"/>
<path d="M179.085 89.5857C178.403 80.8665 177.141 71.3349 174.994 61.1794C169.93 37.1834 161.603 17.4962 153.711 2.59668C153.363 1.40703 152.347 0.536563 151.128 0.391485C149.982 0.246406 148.764 0.710657 148.067 1.87128L111.464 62.9783L179.085 89.5857Z" fill="#542918" stroke="#542918" stroke-width="0.5" stroke-linecap="round" stroke-linejoin="round"/>
<path d="M163.17 85.2334L166.217 52.8374C162.822 40.7958 159.427 28.7688 156.032 16.7273C155.974 16.3646 154.407 7.79049 151.346 7.60189C149.736 7.50033 148.314 9.77806 145.703 14.0869C143.57 17.5833 142.148 20.6589 141.249 22.7626L143.817 23.9958C142.685 25.7802 140.842 28.6528 138.463 32.1347C134.894 37.3575 133.719 38.7067 134.183 39.4901C134.764 40.4912 138.013 40.5927 151.085 35.457C145.717 39.6787 141.336 43.2332 138.086 45.9316C136.127 47.5565 133.763 49.5441 134.241 50.8208C134.633 51.8508 136.722 51.9669 138.391 52.0394C140.61 52.1265 144.063 51.9234 148.285 50.1679C142.061 57.2477 135.852 64.3421 129.628 71.4219L163.127 85.2334H163.17Z" fill="#F1DFD2"/>
<path d="M142.25 69.4924L154.016 65.967L159.485 62.4126" fill="#F1DFD2"/>
<path d="M142.25 69.4924C145.63 66.9971 149.605 65.6188 153.639 64.6903L153.29 64.8499C155.263 63.7908 157.265 62.8914 159.485 62.4126C158.034 64.2841 156.38 66.0251 154.393 67.2582C150.505 68.709 146.428 69.7246 142.235 69.4924H142.25Z" fill="#BDA497"/>
<path d="M145.064 47.4261L152.87 42.9867L156.177 39.5483" fill="#F1DFD2"/>
<path d="M145.064 47.426C146.805 44.8291 149.417 43.0736 152.202 41.8114L151.898 42.0435C153.189 40.9845 154.538 40.085 156.163 39.5337C155.597 41.2456 154.799 42.8995 153.523 44.1327C151.013 45.8881 148.184 47.2374 145.064 47.4115V47.426Z" fill="#BDA497"/>
<path d="M145.107 29.1893L151.738 23.125L154.204 19.0483" fill="#F1DFD2"/>
<path d="M145.107 29.1893C146.225 26.2732 148.386 23.9955 150.838 22.153L150.591 22.4432C151.607 21.123 152.724 19.9478 154.204 19.0483C154.03 20.8473 153.609 22.6318 152.637 24.1116C150.577 26.3748 148.111 28.3189 145.107 29.1748V29.1893Z" fill="#BDA497"/>
<path d="M134.778 191.416L34.1807 146.384L86.9602 60.5991L189.661 90.9495L134.778 191.416Z" fill="#E26225"/>
<path d="M189.327 92.0083L146.95 170.061L139.145 136.417L142.873 123.955L156.119 113.509L159.905 99.9586L189.327 92.0083Z" fill="#F1DFD2"/>
<path d="M33.876 146.282L114.801 182.886L100.685 151.36L90.1954 143.671L73.3228 143.352L62.1228 134.85L33.876 146.282Z" fill="#F1DFD2"/>
<path d="M129.019 119.53C128.917 119.53 128.816 119.53 128.714 119.501C128.221 119.4 127.814 119.051 127.655 118.573L123.607 107.242C123.346 106.488 123.738 105.661 124.492 105.385L146.965 97.3766C147.124 97.3186 147.284 97.2896 147.458 97.2896C147.937 97.2896 148.401 97.5362 148.677 97.9569C149.039 98.5227 148.981 99.2626 148.503 99.7414L130.078 119.095C129.802 119.385 129.425 119.545 129.033 119.545L129.019 119.53Z" fill="#542918"/>
<path d="M147.458 98.7257L129.033 118.079L124.985 106.748L147.458 98.7402M147.458 95.8241C147.139 95.8241 146.805 95.8821 146.486 95.9982L124.013 104.007C123.288 104.268 122.693 104.804 122.359 105.501C122.026 106.197 121.982 106.995 122.243 107.721L126.291 119.051C126.625 119.994 127.437 120.705 128.424 120.908C128.627 120.952 128.83 120.966 129.033 120.966C129.816 120.966 130.585 120.647 131.137 120.067L149.562 100.713C150.49 99.7412 150.621 98.2614 149.895 97.1298C149.344 96.2883 148.415 95.8096 147.458 95.8096V95.8241Z" fill="#F1B69A"/>
<path d="M97.9279 130.541L71.4075 127.219C70.7402 127.132 70.2179 126.61 70.1453 125.942C70.0728 125.275 70.4645 124.637 71.1028 124.419L93.5755 116.411C93.7351 116.353 93.8947 116.324 94.0688 116.324C94.6636 116.324 95.2294 116.701 95.4325 117.281L99.4802 128.612C99.6543 129.091 99.5527 129.613 99.2481 130.005C98.9724 130.353 98.5517 130.541 98.1165 130.541C98.0584 130.541 98.0004 130.541 97.9424 130.541H97.9279Z" fill="#542918"/>
<path d="M94.0691 117.76L98.1167 129.091L71.5964 125.768L94.0691 117.76ZM94.0691 114.858C93.7354 114.858 93.4162 114.916 93.097 115.032L70.6244 123.041C69.3622 123.491 68.5643 124.753 68.7093 126.087C68.8544 127.422 69.899 128.481 71.2337 128.655L97.7541 131.978C97.8701 131.992 98.0007 132.007 98.1167 132.007C98.9872 132.007 99.8287 131.615 100.38 130.919C101.004 130.135 101.192 129.076 100.844 128.133L96.7965 116.802C96.5354 116.077 95.9986 115.482 95.3022 115.149C94.9105 114.96 94.4898 114.873 94.0546 114.873L94.0691 114.858Z" fill="#F1B69A"/>
<path d="M67.1861 146.5C66.2576 147.516 65.2566 148.488 64.212 149.358C63.6897 149.793 63.298 150.461 62.6162 150.606C61.9343 150.765 61.2089 150.823 60.2369 150.461L60.0918 150.214C60.4835 148.314 61.3975 147.646 63.0659 147.356C64.3571 146.906 65.6918 146.544 67.0411 146.253L67.1861 146.5Z" fill="#C28166"/>
<path d="M74.0488 149.909C73.7441 151.258 73.3814 152.593 72.9026 153.884C72.6705 154.523 72.6705 155.292 72.1482 155.756C71.6405 156.235 71.0456 156.655 70.0156 156.829L69.769 156.684C69.1596 154.856 69.6094 153.812 70.9151 152.709C71.8146 151.665 72.7866 150.693 73.8166 149.764L74.0633 149.909H74.0488Z" fill="#C28166"/>
<path d="M81.3318 153.754C82.0717 154.914 82.7535 156.119 83.3193 157.366C83.6095 157.976 84.1463 158.527 84.1028 159.223C84.0883 159.92 83.9577 160.645 83.3484 161.486L83.0727 161.559C81.3463 160.689 80.9401 159.629 81.0851 157.947C80.9836 156.583 80.9836 155.19 81.0561 153.812L81.3318 153.739V153.754Z" fill="#C28166"/>
<path d="M157.759 113.886C158.992 113.248 160.24 112.682 161.545 112.218C162.184 111.986 162.779 111.493 163.475 111.594C164.171 111.681 164.868 111.87 165.666 112.552L165.709 112.842C164.694 114.496 163.605 114.8 161.923 114.51C160.544 114.496 159.181 114.38 157.802 114.177L157.759 113.886Z" fill="#C28166"/>
<path d="M154.755 120.879C156.133 120.937 157.511 121.083 158.861 121.329C159.528 121.445 160.282 121.329 160.834 121.764C161.385 122.185 161.907 122.707 162.255 123.694L162.154 123.97C160.456 124.884 159.354 124.608 158.048 123.52C156.873 122.823 155.741 122.026 154.653 121.17L154.755 120.894V120.879Z" fill="#C28166"/>
<path d="M151.723 128.626C152.652 129.642 153.522 130.716 154.32 131.847C154.712 132.398 155.336 132.848 155.423 133.545C155.524 134.226 155.524 134.966 155.075 135.909L154.813 136.025C152.956 135.474 152.376 134.502 152.216 132.805C151.883 131.47 151.636 130.121 151.477 128.743L151.738 128.626H151.723Z" fill="#C28166"/>
<path d="M139.101 190.937L131.586 193.621L114.598 182.32C119.429 179.505 124.274 176.705 129.106 173.891C134.633 173.006 140.146 172.121 145.673 171.236L139.101 190.937Z" fill="#F1DFD2"/>
<path d="M135.025 178.577C135.098 179.389 134.256 179.578 133.516 181.537C133.023 182.828 133.081 183.553 132.602 183.698C132.08 183.872 131.717 183.133 130.499 182.436C128.83 181.464 127.974 181.943 127.467 181.276C126.654 180.173 127.554 176.981 129.904 176.154C132.225 175.327 134.909 177.17 135.025 178.592V178.577Z" fill="#542918"/>
<path opacity="0.36" d="M134.553 124.379C138.666 122.913 140.856 118.512 139.443 114.55C138.031 110.588 133.551 108.564 129.438 110.031C125.325 111.497 123.135 115.898 124.548 119.86C125.96 123.822 130.44 125.846 134.553 124.379Z" fill="#666666"/>
<path opacity="0.36" d="M99.5852 136.851C103.698 135.384 105.888 130.984 104.475 127.021C103.063 123.059 98.5834 121.036 94.4702 122.502C90.3569 123.968 88.1675 128.369 89.58 132.331C90.9924 136.293 95.4719 138.317 99.5852 136.851Z" fill="#666666"/>
<path d="M95.9552 137.172C100.29 137.172 103.804 133.658 103.804 129.323C103.804 124.988 100.29 121.474 95.9552 121.474C91.6204 121.474 88.1064 124.988 88.1064 129.323C88.1064 133.658 91.6204 137.172 95.9552 137.172Z" stroke="#544D59" stroke-miterlimit="10"/>
<path d="M132.269 125.943C136.603 125.943 140.117 122.429 140.117 118.094C140.117 113.759 136.603 110.245 132.269 110.245C127.934 110.245 124.42 113.759 124.42 118.094C124.42 122.429 127.934 125.943 132.269 125.943Z" stroke="#544D59" stroke-miterlimit="10"/>
<path d="M123.678 119.449L103.344 126.698L104.055 128.693L124.389 121.444L123.678 119.449Z" fill="#63595E" stroke="#544D59" stroke-miterlimit="10"/>
<path d="M104.573 105.878L80.2432 93.3289L91.1531 68.2158L115.468 80.7651L104.573 105.878Z" fill="#BB4320"/>
<g opacity="0.63">
<path d="M83.7681 104.891C81.4034 103.382 79.4593 101.366 77.6894 99.2187C77.1235 97.855 76.6303 96.4767 76.3691 94.9824C77.3702 96.0995 78.1536 97.3327 78.8645 98.5804C80.1992 99.6975 82.6801 102.686 83.7681 104.891Z" fill="#BB4320"/>
</g>
<g opacity="0.63">
<path d="M81.3164 105.065C78.6469 104.21 76.2531 102.744 73.9899 101.119C73.1049 99.9442 72.278 98.7401 71.6396 97.3618C72.8873 98.1888 73.9609 99.1753 74.9619 100.22C76.5288 100.96 79.6915 103.223 81.3164 105.08V105.065Z" fill="#BB4320"/>
</g>
<g opacity="0.63">
<path d="M121.358 95.3453C121.518 92.8935 122.678 89.165 123.476 87.6416C123.65 86.2054 123.912 84.7691 124.405 83.3618C124.724 84.8416 124.797 86.3214 124.797 87.7867C123.984 90.4416 122.954 93.0676 121.344 95.3598L121.358 95.3453Z" fill="#BB4320"/>
</g>
<g opacity="0.63">
<path d="M128.235 92.2407C128.932 89.8904 130.861 86.4956 131.993 85.1753C132.486 83.8116 133.037 82.4769 133.835 81.2002C133.835 82.7235 133.574 84.1743 133.255 85.5961C131.877 88.0189 130.31 90.3401 128.235 92.2262V92.2407Z" fill="#BB4320"/>
</g>
<path d="M118.849 390.13L134.329 392.582L173.877 306.739L184.09 268.192L153.276 263.042L118.849 390.13Z" fill="#E26225"/>
<path d="M119.502 387.011C115.382 387.94 111.929 388.854 109.288 389.593C102.397 391.537 100.743 392.408 99.4084 393.888C97.2467 396.282 96.739 399.27 96.6084 401.2H133.69L173.877 306.739L176.184 298.658L160.457 308.03L154.335 318.926H148.213L149.185 304.81L140.161 310.932L119.531 387.011H119.502Z" fill="#542918"/>
<path d="M305.101 351.699C309.12 376.333 298.007 395.992 294.017 402.375H175.59C176.983 390.899 177.577 390 177.577 390C182.22 383.036 196.742 389.057 200.152 383.558C201.428 381.484 201.327 377.451 195.161 368.891C191.911 364.379 188.952 358.619 188.183 351.699C185.339 326.078 213.354 293.073 246.649 293.233C279.321 293.392 300.822 325.454 305.116 351.699H305.101Z" fill="#E26225"/>
<path d="M199.078 385.444C186.224 384.835 175.647 385.328 167.915 385.995C160.429 386.648 155.235 387.475 152.232 391.581C149.591 395.193 149.824 399.72 150.23 402.375H205.432C207.188 399.111 208.943 395.832 210.698 392.568C204.388 392.089 198.091 391.61 191.78 391.146C194.218 389.245 196.655 387.33 199.092 385.43L199.078 385.444Z" fill="#542918"/>
<g opacity="0.5">
<path d="M211.162 353.425C210.93 354.789 210.625 356.138 210.219 357.444C210.016 358.097 210.059 358.865 209.552 359.359C209.073 359.866 208.493 360.316 207.477 360.534L207.216 360.403C206.505 358.604 206.911 357.545 208.159 356.385C209 355.297 209.914 354.266 210.901 353.294L211.162 353.425Z" fill="#BB4320"/>
</g>
<g opacity="0.5">
<path d="M219.794 352.468C220.186 353.788 220.505 355.137 220.708 356.501C220.81 357.168 221.187 357.85 220.955 358.503C220.737 359.17 220.418 359.823 219.606 360.476H219.315C217.894 359.156 217.792 358.024 218.401 356.443C218.677 355.094 219.054 353.773 219.518 352.468H219.809H219.794Z" fill="#BB4320"/>
</g>
<g opacity="0.5">
<path d="M228.775 351.844C229.805 352.772 230.762 353.759 231.662 354.803C232.097 355.326 232.764 355.703 232.91 356.385C233.069 357.067 233.142 357.792 232.779 358.778L232.532 358.924C230.632 358.546 229.964 357.632 229.645 355.964C229.181 354.673 228.818 353.338 228.514 351.989L228.76 351.844H228.775Z" fill="#BB4320"/>
</g>
<g opacity="0.5">
<path d="M215.05 325.73C214.368 326.774 213.629 327.775 212.802 328.704C212.395 329.168 212.149 329.821 211.554 330.009C210.959 330.213 210.292 330.329 209.334 330.053L209.16 329.821C209.262 327.804 209.886 327.326 211.409 326.847C212.526 326.31 213.687 325.875 214.876 325.498L215.05 325.73Z" fill="#BB4320"/>
</g>
<g opacity="0.5">
<path d="M222.971 327.587C222.87 328.762 222.681 329.922 222.405 331.054C222.275 331.605 222.362 332.287 221.927 332.693C221.506 333.114 220.984 333.477 220.012 333.636L219.751 333.506C218.851 331.649 219.286 331.025 220.316 330.038C221.042 329.124 221.84 328.268 222.71 327.456L222.971 327.587Z" fill="#BB4320"/>
</g>
<g opacity="0.5">
<path d="M231.082 329.821C231.676 330.807 232.199 331.837 232.634 332.911C232.852 333.433 233.316 333.912 233.2 334.492C233.098 335.073 232.881 335.667 232.184 336.335L231.894 336.378C231.009 335.972 230.617 335.479 230.327 334.971C230.023 334.463 230.313 333.854 230.327 333.303C230.385 332.157 230.545 331.01 230.777 329.879L231.067 329.835L231.082 329.821Z" fill="#BB4320"/>
</g>
<g opacity="0.5">
<path d="M221.289 381.788C221.623 382.861 221.884 383.964 222.058 385.067C222.145 385.603 222.479 386.169 222.218 386.691C221.985 387.214 221.637 387.722 220.796 388.186L220.506 388.157C219.751 387.562 219.476 386.996 219.33 386.459C219.156 385.908 219.577 385.4 219.751 384.878C220.085 383.804 220.506 382.774 221.013 381.759L221.304 381.788H221.289Z" fill="#BB4320"/>
</g>
<g opacity="0.5">
<path d="M227.774 378.321C228.571 379.133 229.326 379.989 229.979 380.903C230.298 381.353 230.864 381.701 230.878 382.281C230.907 382.862 230.835 383.471 230.312 384.284L230.051 384.4C229.108 384.211 228.601 383.848 228.209 383.428C227.803 383.021 227.933 382.368 227.832 381.817C227.628 380.7 227.512 379.583 227.483 378.437L227.745 378.321H227.774Z" fill="#BB4320"/>
</g>
<g opacity="0.5">
<path d="M234.636 375.027C235.782 375.318 236.899 375.666 237.973 376.115C238.495 376.333 239.177 376.348 239.511 376.841C239.859 377.32 240.134 377.9 240.134 378.872L239.975 379.104C238.002 379.713 237.451 379.177 236.638 378.016C235.84 377.16 235.129 376.232 234.462 375.259L234.622 375.027H234.636Z" fill="#BB4320"/>
</g>
</g>
<defs>
<linearGradient id="paint0_linear_4279_400" x1="328.53" y1="109.621" x2="328.53" y2="403.985" gradientUnits="userSpaceOnUse">
<stop stop-color="#BB4320"/>
<stop offset="1" stop-color="#E26225"/>
</linearGradient>
<linearGradient id="paint1_linear_4279_400" x1="55.3331" y1="136.852" x2="303.533" y2="385.053" gradientUnits="userSpaceOnUse">
<stop stop-color="#BB4320"/>
<stop offset="0.51" stop-color="#E26225"/>
</linearGradient>
<clipPath id="clip0_4279_400">
<rect width="401.563" height="404" fill="white"/>
</clipPath>
</defs>
</svg>
