<svg width="354" height="434" viewBox="0 0 354 434" fill="none" xmlns="http://www.w3.org/2000/svg">
<g clip-path="url(#clip0_4270_43)">
<path d="M298.925 419.065C268.642 438.661 235.022 433.923 223.753 431.814C234.472 407.701 245.977 375.608 252.966 336.716C261.386 289.796 260.269 249.33 257.168 219.944C257.451 206.408 256.381 187.269 250.211 165.375C243.695 142.206 233.905 124.562 226.208 112.915C237.808 112.773 262.834 114.08 288.553 129.489C327.618 152.878 339.533 191.55 342.13 200.852C349.591 228.758 367.156 306.968 335.598 373.467C321.165 403.892 304.119 415.697 298.925 419.065Z" fill="url(#paint0_linear_4270_43)"/>
<path d="M256.695 220.07C256.963 206.503 255.845 187.316 249.597 165.359C242.986 142.128 233.07 124.421 225.295 112.742C237.005 112.616 262.267 113.97 288.253 129.442C327.728 152.941 339.816 191.723 342.444 201.057L310.556 224.54L302.293 193.014L278.101 223.596L276.26 195.863L256.68 220.07H256.695Z" fill="#CECDC9"/>
<path d="M279.534 278.873C280.069 270.736 281.958 262.771 284.335 254.996C284.193 252.903 284.665 246.087 285.342 242.452C286.365 246.749 286.853 251.077 287.184 255.453C285.405 263.48 283.139 271.444 279.55 278.873H279.534Z" fill="#C74D00"/>
<path d="M296.863 324.14C297.398 316.003 299.287 308.039 301.664 300.263C301.522 298.17 301.994 291.355 302.671 287.719C303.694 292.016 304.182 296.344 304.513 300.72C302.734 308.747 300.468 316.711 296.879 324.14H296.863Z" fill="#C74D00"/>
<path d="M326.563 280.368C327.099 272.231 328.987 264.267 331.364 256.491C331.222 254.398 331.695 247.583 332.371 243.947C333.394 248.244 333.882 252.572 334.213 256.948C332.434 264.975 330.168 272.939 326.579 280.368H326.563Z" fill="#C74D00"/>
<path d="M313.421 358.531C313.956 350.393 315.845 342.429 318.221 334.654C318.08 332.56 318.552 325.745 319.229 322.109C320.252 326.406 320.74 330.735 321.07 335.11C319.292 343.137 317.025 351.102 313.437 358.531H313.421Z" fill="#C74D00"/>
<path d="M269.13 375.278C269.665 367.14 271.554 359.176 273.93 351.401C273.789 349.308 274.261 342.492 274.938 338.856C275.961 343.153 276.449 347.482 276.779 351.857C275.001 359.884 272.734 367.849 269.146 375.278H269.13Z" fill="#C74D00"/>
<path d="M274.875 417.523C277.582 410.534 282.965 401.327 286.585 396.636C287.986 392.528 289.513 388.499 291.559 384.627C291.228 389.034 290.347 393.299 289.324 397.565C285.184 404.663 280.573 411.542 274.875 417.523Z" fill="#C74D00"/>
<path d="M323.558 180.029C319.545 176.55 315.736 172.883 312.005 169.137L314.052 168.523C313.737 171.419 313.343 174.284 312.95 177.164C312.556 180.044 312.1 182.909 311.675 185.773L308.857 186.466C305.096 181.351 301.397 176.204 297.871 170.915L299.776 170.726C298.643 172.804 297.494 174.882 296.297 176.928C295.117 178.974 293.889 181.02 292.614 183.019C293.385 180.768 294.22 178.549 295.07 176.33C295.935 174.126 296.832 171.923 297.745 169.751L299.65 169.562C301.664 172.017 303.648 174.488 305.599 176.991C307.567 179.478 309.44 182.043 311.36 184.562L308.543 185.254C309.503 179.525 310.479 173.811 311.675 168.129L313.721 167.516C317.105 171.576 320.426 175.684 323.511 180.013L323.558 180.029Z" fill="#BDA497"/>
<path d="M272.624 145.291C269.791 140.16 267.887 134.604 266.266 129.001L268.359 127.112C270.799 128.135 273.191 129.237 275.536 130.465C277.881 131.693 280.211 132.999 282.414 134.573C277.126 133.691 272.121 131.96 267.179 130.008L269.272 128.12C270.893 133.723 272.262 139.436 272.624 145.276V145.291Z" fill="#BDA497"/>
<path d="M263.37 183.916C262.693 178.109 263.008 172.238 263.622 166.43L266.282 165.47C268.155 167.327 269.949 169.263 271.665 171.278C273.38 173.292 275.033 175.386 276.481 177.668C271.916 174.85 267.934 171.372 264.078 167.689L266.738 166.729C266.124 172.521 265.243 178.329 263.37 183.885V183.916Z" fill="#BDA497"/>
<path d="M224.604 362.624H168.351V422.985H224.604V362.624Z" fill="#BB4320"/>
<path d="M36.7361 389.428L102.811 325.935L138.807 282.714L103.802 250.92L30.4561 381.259L36.7361 389.428Z" fill="#BB4320"/>
<path d="M65.0517 320.914L85.4974 343.122L36.7363 389.428L37.4288 408.614L27.6388 420.781H12.5918V411.857L65.0517 320.914Z" fill="#54292A"/>
<path d="M295.51 422.985C321.716 401.248 292.818 326.926 275.237 294.156C267.887 280.432 239.871 229.876 181.052 203.182C170.711 198.491 161.661 195.564 155.255 193.738L156.026 142.632L36.6416 143.435L39.0183 249.173C62.5804 287.2 104.668 342.886 174.363 385.052C203.386 402.618 269.54 444.516 295.526 422.969L295.51 422.985Z" fill="url(#paint1_linear_4270_43)"/>
<path d="M67.3342 289.718C57.2452 276.213 47.1561 262.693 37.0671 249.188L34.6904 143.45L132.889 142.789C135.376 170.648 106.305 194.934 108.792 222.793" fill="#BB4320"/>
<path d="M52.0665 141.971L54.5219 247.457C55.7181 259.97 58.4568 270.83 61.7936 280.117C71.4891 307.047 189.725 408.331 196.87 410.346C197.563 395.189 196.178 356.705 196.87 341.548L216.45 320.914L175.528 321.606L167.485 298.17L131.803 287.326L136.006 244.309L108.729 250.259L144.048 192.369L129.001 191.283L148.943 141.955H52.0508L52.0665 141.971Z" fill="#F1DFD2"/>
<path d="M205.857 388.877L194.667 412.581L157.27 378.631L221.455 318.883L205.857 388.877Z" fill="#CECDC9"/>
<path d="M55.3245 248.103L142.994 157.128L52.0664 160.449L55.3245 248.103Z" fill="#CECDC9"/>
<path d="M79.6417 237.966C79.8306 239.461 79.925 240.941 79.925 242.436C79.925 243.176 80.1925 243.962 79.8306 244.623C79.4843 245.3 79.0279 245.945 78.0364 246.496L77.7217 246.433C76.4311 244.781 76.5098 243.553 77.4384 241.964C77.9735 240.579 78.603 239.225 79.3269 237.903L79.6417 237.966Z" fill="#C28166"/>
<path d="M73.1256 236.817C72.7321 238.265 72.26 239.681 71.6934 241.066C71.4101 241.743 71.3629 242.577 70.7806 243.065C70.214 243.553 69.5373 243.978 68.4042 244.12L68.1366 243.947C67.57 241.932 68.1051 240.83 69.5688 239.697C70.5917 238.611 71.6934 237.604 72.858 236.644L73.1256 236.817Z" fill="#C28166"/>
<path d="M69.1749 228.885C68.2149 230.049 67.2077 231.135 66.106 232.158C65.5709 232.662 65.1774 233.402 64.4535 233.59C63.7295 233.795 62.9426 233.905 61.8567 233.575L61.6836 233.307C61.9984 231.23 62.9426 230.459 64.7525 230.034C66.1375 229.467 67.5539 228.995 69.0018 228.617L69.1749 228.885Z" fill="#F1DFD2"/>
<path d="M101.017 239.887C101.93 241.083 102.779 242.31 103.519 243.601C103.897 244.23 104.526 244.781 104.542 245.537C104.589 246.292 104.511 247.079 103.944 248.055L103.645 248.165C101.694 247.394 101.143 246.292 101.143 244.451C100.891 242.987 100.765 241.492 100.718 239.997L101.017 239.887Z" fill="#C28166"/>
<path d="M106.62 232.3C107.957 232.961 109.264 233.716 110.491 234.55C111.105 234.96 111.908 235.164 112.27 235.841C112.647 236.502 112.931 237.242 112.836 238.375L112.616 238.595C110.523 238.752 109.547 238.013 108.744 236.344C107.879 235.133 107.108 233.842 106.399 232.52L106.62 232.3Z" fill="#C28166"/>
<path d="M112.758 224.714C114.253 224.588 115.748 224.54 117.243 224.603C117.983 224.635 118.77 224.399 119.431 224.776C120.092 225.138 120.722 225.626 121.241 226.634L121.178 226.933C119.478 228.16 118.251 228.034 116.693 227.043C115.323 226.46 114.001 225.768 112.711 224.997L112.774 224.698L112.758 224.714Z" fill="#C28166"/>
<path d="M90.7701 279.739C90.3609 281.187 89.8887 282.603 89.2907 283.973C89.0074 284.649 88.9444 285.483 88.3621 285.956C87.7798 286.443 87.1031 286.868 85.9857 286.994L85.7181 286.821C85.1673 284.791 85.7181 283.705 87.1975 282.588C88.2362 281.517 89.3379 280.51 90.5182 279.566L90.7858 279.739H90.7701Z" fill="#C28166"/>
<path d="M100.182 279.692C100.45 281.171 100.639 282.651 100.702 284.146C100.733 284.885 101.048 285.656 100.733 286.333C100.434 287.026 99.9935 287.702 99.0492 288.3L98.7344 288.253C97.3495 286.679 97.3652 285.452 98.2151 283.799C98.6715 282.383 99.2381 280.998 99.8676 279.645L100.182 279.692Z" fill="#C28166"/>
<path d="M109.957 280.069C110.949 281.187 111.893 282.367 112.727 283.595C113.136 284.208 113.813 284.696 113.892 285.452C113.986 286.207 113.97 286.994 113.482 288.017L113.199 288.143C111.2 287.513 110.571 286.459 110.429 284.618C110.083 283.17 109.831 281.69 109.674 280.195L109.957 280.069Z" fill="#C28166"/>
<path d="M0.298828 102.323C25.2932 131.425 52.7745 166.147 77.7689 195.249C111.892 174.457 149.211 149.951 183.334 129.159L124.232 55.9068L96.6721 52.0349L78.304 50.9961L0.298828 102.323Z" fill="#E26225"/>
<path d="M23.8295 99.3951C23.798 89.9199 24.3174 79.4846 25.7182 68.3252C29.055 41.93 36.3109 19.9104 43.5196 3.08483C43.7872 1.77844 44.8103 0.739634 46.1167 0.472062C47.3443 0.20449 48.6979 0.613718 49.5636 1.80992L94.5787 64.6264L23.8295 99.3951Z" fill="#542918" stroke="#542918" stroke-width="0.5" stroke-linecap="round" stroke-linejoin="round"/>
<path d="M39.5056 93.477L33.9023 58.6296C36.7197 45.3612 39.5371 32.0928 42.3545 18.8243C42.4017 18.4308 43.4877 9.03433 46.7773 8.60936C48.5086 8.38901 50.2085 10.7499 53.3564 15.22C55.9062 18.8558 57.6691 22.0667 58.7866 24.2859C57.8894 24.7896 56.9923 25.2933 56.0951 25.7969C57.4487 27.6542 59.6522 30.629 62.4696 34.2333C66.7036 39.632 68.0729 41.0171 67.6322 41.8985C67.0656 43.0317 63.5556 43.3623 49.0438 38.7348C55.1665 42.9216 60.1402 46.463 63.8547 49.1387C66.1054 50.7599 68.7969 52.743 68.3562 54.1596C68.0099 55.3086 65.7434 55.5762 63.9491 55.765C61.5567 56.0169 57.795 56.0484 53.1046 54.4429C60.3448 61.6674 67.5692 68.9076 74.8094 76.132L39.5214 93.477H39.5056Z" fill="#F1DFD2"/>
<path d="M54.9941 50.9332L46.3688 46.4003L42.6543 42.7959" fill="#F1DFD2"/>
<path d="M54.9941 50.9332C51.6101 50.8545 48.4779 49.5009 45.692 47.6909C44.2597 46.4003 43.3468 44.6374 42.6543 42.7959C43.5829 43.0635 44.4171 43.457 45.1884 43.8977C45.9753 44.3226 46.6836 44.8263 47.3762 45.3614L47.0456 45.1254C50.1148 46.3845 53.0109 48.1946 54.9941 50.9332Z" fill="#BDA497"/>
<path d="M54.2541 31.1483L46.8408 24.8368L44.0234 20.4927" fill="#F1DFD2"/>
<path d="M54.2543 31.1487C50.9647 30.3303 48.2103 28.3156 45.8966 25.9389C44.7948 24.365 44.2754 22.4448 44.0078 20.5088C44.8577 20.981 45.5818 21.5319 46.2428 22.1457C46.9196 22.7438 47.502 23.3891 48.0529 24.0502L47.7853 23.7354C50.5082 25.6399 52.9321 28.0323 54.2543 31.1487Z" fill="#BDA497"/>
<path d="M58.8812 74.7314C54.3482 75.1406 49.8782 74.1805 45.6128 72.7639C43.4092 71.489 41.5677 69.679 39.915 67.6958C42.3389 68.1365 44.5582 69.0494 46.7303 70.104L46.3525 69.9466C50.7753 70.7965 55.1352 72.1501 58.8812 74.7156V74.7314Z" fill="#BDA497"/>
<path d="M157.411 117.118C159.253 107.816 160.748 97.4904 161.488 86.2524C163.251 59.6998 160.339 36.7043 156.483 18.8242C156.483 17.4863 155.664 16.2744 154.436 15.755C153.287 15.267 151.871 15.3929 150.801 16.4003L94.6104 69.4583L157.411 117.118Z" fill="#542918" stroke="#542918" stroke-width="0.5" stroke-linecap="round" stroke-linejoin="round"/>
<path d="M142.065 107.91L154.767 74.9673C154.767 61.3998 154.767 47.8323 154.751 34.2648C154.798 33.8713 155.68 24.4433 152.547 23.3573C150.895 22.7749 148.738 24.7424 144.741 28.4727C141.482 31.5104 139.09 34.2806 137.548 36.2165C138.319 36.8933 139.106 37.5701 139.877 38.2627C138.161 39.8051 135.407 42.2448 131.881 45.1881C126.624 49.5951 125.003 50.6654 125.255 51.6098C125.57 52.8375 128.938 53.892 144.095 52.3653C137.249 55.1984 131.629 57.6223 127.443 59.4796C124.909 60.5971 121.855 61.9821 121.997 63.4617C122.107 64.6579 124.248 65.3819 125.979 65.9485C128.261 66.704 131.944 67.491 136.871 66.9086C128.293 72.4804 119.715 78.0522 111.152 83.624L142.081 107.894L142.065 107.91Z" fill="#F1DFD2"/>
<path d="M124.846 85.3085L138.177 85.0881L144.929 82.979" fill="#F1DFD2"/>
<path d="M124.846 85.308C129.095 83.7026 133.66 83.4193 138.161 83.6396L137.752 83.7026C140.113 83.1832 142.474 82.8212 144.945 82.9785C142.883 84.5053 140.648 85.8274 138.209 86.5514C133.723 86.9134 129.158 86.7875 124.846 85.308Z" fill="#BDA497"/>
<path d="M134.274 63.0997L143.734 60.7545L148.188 58.126" fill="#F1DFD2"/>
<path d="M134.274 63.0997C136.856 60.8961 140.098 59.8416 143.372 59.3379L142.994 59.4953C144.647 58.7713 146.315 58.2204 148.188 58.126C147.086 59.7471 145.764 61.2424 144.08 62.1553C140.948 63.2571 137.595 63.8394 134.274 63.0997Z" fill="#BDA497"/>
<path d="M139.688 44.0547L148.377 39.6791L152.154 36.1377" fill="#F1DFD2"/>
<path d="M139.688 44.0547C141.719 41.3475 144.646 39.6004 147.731 38.3885L147.385 38.6245C148.833 37.5543 150.344 36.6571 152.154 36.1377C151.446 37.9635 150.486 39.7106 149.038 40.9697C146.22 42.7326 143.072 44.0389 139.688 44.0547Z" fill="#BDA497"/>
<path d="M76.8406 201.844L2.80176 107.942L96.6724 52.0508L180.139 132.873L76.8406 201.844Z" fill="#E26225"/>
<path d="M182.516 131.567L99.2852 187.442L108.713 151.178L118.55 141.058L136.541 137.689L146.992 126.577L182.516 131.567Z" fill="#F1DFD2"/>
<path d="M0 104.432L61.9194 183.602L64.2173 146.204L58.0002 133.518L41.9459 124.736L35.4612 110.916L0 104.432Z" fill="#F1DFD2"/>
<path d="M102.497 129.221L106.574 114.882L133.189 122.453C128.766 122.296 122.896 122.579 116.159 124.216C110.666 125.554 106.07 127.442 102.513 129.221H102.497Z" fill="#542918"/>
<path d="M101.867 129.048C102.497 123.586 103.646 118.251 104.952 112.931C105.125 112.191 105.865 111.735 106.605 111.908C108.95 112.569 111.248 113.372 113.546 114.127C120.267 116.488 126.909 119.038 133.189 122.469C123.808 120.942 114.742 118.015 105.865 114.694L107.722 113.718C106.038 118.928 104.212 124.074 101.867 129.048Z" fill="#F1B69A"/>
<path d="M76.1803 125.868L77.2506 110.428L48.5889 108.445C53.0746 109.688 59.2603 112.018 65.7607 116.551C70.2307 119.667 73.662 123.004 76.196 125.868H76.1803Z" fill="#542918"/>
<path d="M76.5261 125.885C76.0225 120.203 76.054 114.536 76.2586 108.854L77.6751 110.397C67.8379 110.507 57.9535 110.177 48.2422 108.429C55.5768 107.328 62.9744 107.202 70.3562 107.265C72.8588 107.328 75.3457 107.375 77.8483 107.532C78.6038 107.58 79.1861 108.241 79.1389 108.996C78.5565 114.678 77.8011 120.313 76.5261 125.9V125.885Z" fill="#F1B69A"/>
<path d="M34.4685 124.673C33.0521 125.176 31.62 125.617 30.1721 125.932C29.4481 126.089 28.7399 126.53 28.0159 126.325C27.292 126.136 26.5523 125.837 25.7969 124.987V124.673C27.1189 123.052 28.3307 122.863 30.0934 123.414C31.5727 123.634 33.0364 123.949 34.4685 124.358V124.673Z" fill="#C28166"/>
<path d="M39.3481 131.394C38.3881 132.542 37.3494 133.628 36.2477 134.636C35.7126 135.139 35.3192 135.863 34.5795 136.052C33.8555 136.257 33.0686 136.351 31.9827 136.005L31.8096 135.737C32.1401 133.66 33.1001 132.904 34.91 132.495C36.2949 131.944 37.7271 131.488 39.175 131.126L39.3481 131.394Z" fill="#C28166"/>
<path d="M44.4006 138.76C44.5265 140.255 44.5737 141.75 44.4951 143.245C44.4636 143.985 44.6996 144.772 44.3062 145.433C43.9442 146.094 43.4406 146.723 42.4334 147.227L42.1343 147.164C40.9068 145.464 41.0484 144.237 42.0399 142.679C42.6222 141.309 43.3147 139.987 44.0859 138.697L44.3849 138.76H44.4006Z" fill="#C28166"/>
<path d="M137.941 138.886C139.436 138.886 140.931 138.98 142.411 139.185C143.135 139.279 143.953 139.106 144.567 139.562C145.196 139.987 145.779 140.538 146.188 141.577L146.094 141.876C144.284 142.946 143.088 142.71 141.624 141.577C140.318 140.869 139.059 140.066 137.831 139.185L137.925 138.886H137.941Z" fill="#C28166"/>
<path d="M131.535 144.096C132.825 144.851 134.084 145.685 135.249 146.598C135.831 147.054 136.618 147.306 136.933 147.999C137.264 148.675 137.5 149.447 137.327 150.564L137.09 150.769C134.997 150.8 134.069 149.982 133.376 148.266C132.589 146.991 131.913 145.67 131.299 144.3L131.535 144.096Z" fill="#C28166"/>
<path d="M124.72 149.998C125.098 151.446 125.397 152.909 125.585 154.389C125.68 155.113 126.058 155.868 125.79 156.576C125.538 157.284 125.16 157.993 124.263 158.669H123.949C122.438 157.19 122.375 155.962 123.083 154.263C123.429 152.815 123.87 151.383 124.405 149.982L124.72 149.998Z" fill="#C28166"/>
<path d="M81.2317 203.56L72.6536 202.363L62.0137 182.957C68.0734 182.689 74.1331 182.421 80.1928 182.154L97.4434 187.93L81.2317 203.56Z" fill="#F1DFD2"/>
<path d="M83.5445 189.614C83.1983 190.432 82.3169 190.18 80.6015 191.691C79.4683 192.683 79.1693 193.407 78.6342 193.312C78.0519 193.218 78.0677 192.321 77.2493 191.046C76.1319 189.268 75.0617 189.299 74.92 188.402C74.6997 186.923 77.1548 184.326 79.8303 184.704C82.4743 185.081 84.1268 188.197 83.5288 189.614H83.5445Z" fill="#542918"/>
<path opacity="0.36" d="M116.444 147.636C117.073 143.16 113.808 139 109.151 138.346C104.494 137.691 100.209 140.789 99.5795 145.266C98.9504 149.742 102.216 153.901 106.873 154.556C111.53 155.21 115.815 152.112 116.444 147.636Z" fill="#666666"/>
<path opacity="0.36" d="M76.8844 142.069C77.5139 137.593 74.2489 133.434 69.5919 132.78C64.9348 132.126 60.6492 135.224 60.0197 139.7C59.3902 144.177 62.6552 148.335 67.3122 148.989C71.9693 149.644 76.2549 146.545 76.8844 142.069Z" fill="#666666"/>
<path d="M67.5849 148.455C72.2529 148.455 76.0371 144.671 76.0371 140.003C76.0371 135.335 72.2529 131.551 67.5849 131.551C62.917 131.551 59.1328 135.335 59.1328 140.003C59.1328 144.671 62.917 148.455 67.5849 148.455Z" stroke="#544D59" stroke-miterlimit="10"/>
<path d="M107.815 155.884C112.483 155.884 116.268 152.1 116.268 147.432C116.268 142.764 112.483 138.98 107.815 138.98C103.147 138.98 99.3633 142.764 99.3633 147.432C99.3633 152.1 103.147 155.884 107.815 155.884Z" stroke="#544D59" stroke-miterlimit="10"/>
<path d="M98.9586 144.416L75.9531 141.183L75.6377 143.428L98.6432 146.661L98.9586 144.416Z" fill="#63595E" stroke="#544D59" stroke-miterlimit="10"/>
<path d="M91.0695 104.731L74.0078 80.4448L97.1135 61.7935L114.191 86.0796L91.0695 104.731Z" fill="#BB4320"/>
<g opacity="0.63">
<path d="M73.1575 96.7353C70.1197 96.5622 67.2079 95.665 64.4063 94.5632C63.1629 93.5716 61.9667 92.5171 60.9121 91.2422C62.4546 91.7773 63.8397 92.5328 65.1775 93.3513C67.0191 93.6976 70.9539 95.24 73.1575 96.751V96.7353Z" fill="#BB4320"/>
</g>
<g opacity="0.63">
<path d="M70.9069 98.1991C67.9321 98.7972 64.8786 98.6713 61.8881 98.3251C60.4243 97.6797 59.0078 96.9715 57.6699 95.9956C59.2911 96.1215 60.8178 96.4993 62.3288 96.94C64.2018 96.8141 68.4043 97.2862 70.9069 98.1991Z" fill="#BB4320"/>
</g>
<g opacity="0.63">
<path d="M112.317 100.639C114.977 100.591 119.117 101.488 120.848 102.228C122.422 102.291 123.98 102.433 125.57 102.842C123.996 103.33 122.406 103.55 120.832 103.676C117.889 103.047 114.962 102.181 112.333 100.654L112.317 100.639Z" fill="#BB4320"/>
</g>
<g opacity="0.63">
<path d="M113.372 103.094C115.953 103.723 119.731 105.644 121.21 106.793C122.706 107.249 124.201 107.784 125.617 108.571C123.965 108.634 122.391 108.445 120.817 108.178C118.125 106.824 115.513 105.234 113.372 103.094Z" fill="#BB4320"/>
</g>
<path d="M73.755 196.776C74.1013 195.957 74.9826 196.209 76.698 194.698C77.8312 193.707 78.1302 192.983 78.6653 193.077C79.2476 193.172 79.2319 194.069 80.0502 195.343C81.1676 197.122 82.2378 197.09 82.3795 197.987C82.5998 199.467 80.1447 202.064 77.4692 201.686C74.8252 201.308 73.1727 198.192 73.7708 196.776H73.755Z" fill="#CECDC9"/>
<path d="M84.836 197.83C84.836 197.83 84.7416 197.956 84.6629 198.019C83.8601 198.633 81.4677 197.547 80.2243 195.816C79.0596 194.194 79.4058 192.699 78.729 192.573C78.0365 192.432 77.7532 194.037 75.9589 195.217C74.2433 196.351 71.8194 196.665 71.4574 196.052C71.4259 196.004 71.4259 195.973 71.4102 195.941" stroke="#542918" stroke-width="0.5" stroke-linecap="round" stroke-linejoin="round"/>
<path d="M105.644 418.137L122.438 420.781L165.344 327.65L176.424 285.846L142.993 280.258L105.644 418.137Z" fill="#E26225"/>
<path d="M106.352 414.753C101.882 415.76 98.1356 416.752 95.271 417.554C87.7947 419.664 86.0004 420.608 84.5524 422.213C82.2072 424.81 81.6563 428.053 81.5146 430.146H121.745L165.343 327.666L167.846 318.899L150.784 329.067L144.142 340.887H137.5L138.555 325.573L128.765 332.215L106.383 414.753H106.352Z" fill="#542918"/>
<path d="M307.708 376.443C312.068 403.168 300.011 424.496 295.683 431.421H167.201C168.712 418.971 169.357 417.995 169.357 417.995C174.394 410.44 190.149 416.972 193.848 411.007C195.233 408.756 195.123 404.38 188.434 395.094C184.908 390.199 181.697 383.95 180.863 376.443C177.778 348.647 208.171 312.839 244.293 313.012C279.739 313.185 303.065 347.97 307.724 376.443H307.708Z" fill="#E26225"/>
<path d="M192.683 413.037C178.738 412.376 167.264 412.911 158.875 413.635C150.753 414.343 145.118 415.24 141.86 419.695C138.996 423.614 139.248 428.525 139.688 431.405H199.577C201.482 427.864 203.386 424.306 205.291 420.765L184.766 419.223C187.411 417.161 190.055 415.083 192.699 413.021L192.683 413.037Z" fill="#542918"/>
<g opacity="0.5">
<path d="M215.159 377.261C215.584 378.693 215.93 380.157 216.151 381.636C216.261 382.36 216.67 383.1 216.418 383.808C216.182 384.532 215.836 385.24 214.954 385.949H214.64C213.097 384.532 212.987 383.305 213.648 381.573C213.947 380.11 214.356 378.678 214.86 377.261H215.175H215.159Z" fill="#BB4320"/>
</g>
<g opacity="0.5">
<path d="M224.901 376.6C226.019 377.607 227.058 378.678 228.033 379.811C228.505 380.377 229.229 380.786 229.387 381.526C229.56 382.266 229.639 383.053 229.245 384.123L228.978 384.28C226.916 383.871 226.192 382.88 225.846 381.07C225.342 379.669 224.949 378.221 224.618 376.757L224.886 376.6H224.901Z" fill="#BB4320"/>
</g>
<g opacity="0.5">
<path d="M210.012 348.253C209.272 349.386 208.469 350.472 207.572 351.48C207.132 351.983 206.864 352.691 206.219 352.896C205.574 353.116 204.85 353.242 203.811 352.943L203.622 352.691C203.732 350.504 204.409 349.984 206.061 349.465C207.273 348.883 208.532 348.411 209.823 348.001L210.012 348.253Z" fill="#BB4320"/>
</g>
<g opacity="0.5">
<path d="M218.606 350.284C218.496 351.559 218.291 352.818 217.992 354.045C217.851 354.643 217.945 355.383 217.473 355.824C217.017 356.28 216.45 356.673 215.396 356.846L215.112 356.705C214.136 354.69 214.609 354.014 215.726 352.943C216.513 351.952 217.379 351.023 218.323 350.142L218.606 350.284Z" fill="#BB4320"/>
</g>
<g opacity="0.5">
<path d="M227.404 352.708C228.05 353.778 228.616 354.895 229.088 356.06C229.324 356.626 229.828 357.146 229.702 357.775C229.592 358.405 229.356 359.05 228.6 359.774L228.286 359.821C227.326 359.38 226.901 358.845 226.586 358.295C226.255 357.744 226.57 357.083 226.586 356.485C226.649 355.241 226.822 353.998 227.074 352.77L227.389 352.723L227.404 352.708Z" fill="#BB4320"/>
</g>
<g opacity="0.5">
<path d="M216.78 409.071C217.142 410.235 217.425 411.431 217.614 412.627C217.708 413.21 218.07 413.823 217.787 414.39C217.535 414.957 217.158 415.507 216.245 416.011L215.93 415.98C215.112 415.334 214.813 414.72 214.655 414.138C214.466 413.54 214.923 412.989 215.112 412.423C215.474 411.258 215.93 410.141 216.481 409.039L216.796 409.071H216.78Z" fill="#BB4320"/>
</g>
<g opacity="0.5">
<path d="M223.8 405.325C224.666 406.206 225.484 407.135 226.192 408.126C226.539 408.614 227.152 408.992 227.168 409.621C227.2 410.251 227.121 410.912 226.554 411.793L226.271 411.919C225.248 411.714 224.697 411.321 224.272 410.865C223.832 410.424 223.973 409.716 223.863 409.118C223.643 407.906 223.517 406.694 223.485 405.451L223.769 405.325H223.8Z" fill="#BB4320"/>
</g>
<g opacity="0.5">
<path d="M231.261 401.736C232.504 402.051 233.716 402.429 234.881 402.917C235.447 403.153 236.187 403.168 236.549 403.704C236.927 404.223 237.226 404.852 237.226 405.907L237.053 406.159C234.912 406.82 234.314 406.237 233.433 404.978C232.567 404.05 231.796 403.043 231.072 401.988L231.245 401.736H231.261Z" fill="#BB4320"/>
</g>
<g opacity="0.5">
<path d="M205.794 378.315C205.542 379.795 205.212 381.258 204.771 382.675C204.551 383.383 204.598 384.217 204.047 384.752C203.528 385.303 202.898 385.791 201.796 386.027L201.513 385.885C200.742 383.934 201.183 382.785 202.536 381.526C203.449 380.346 204.44 379.228 205.511 378.174L205.794 378.315Z" fill="#BB4320"/>
</g>
</g>
<defs>
<linearGradient id="paint0_linear_4270_43" x1="289.759" y1="113.139" x2="288.415" y2="434.034" gradientUnits="userSpaceOnUse">
<stop stop-color="#BB4320"/>
<stop offset="1" stop-color="#E26225"/>
</linearGradient>
<linearGradient id="paint1_linear_4270_43" x1="36.736" y1="143.34" x2="306.008" y2="412.612" gradientUnits="userSpaceOnUse">
<stop stop-color="#BB4320"/>
<stop offset="0.51" stop-color="#E26225"/>
</linearGradient>
<clipPath id="clip0_4270_43">
<rect width="353.762" height="433.876" fill="white"/>
</clipPath>
</defs>
</svg>
