<svg width="63" height="68" viewBox="0 0 63 68" fill="none" xmlns="http://www.w3.org/2000/svg">
<path d="M62.5471 1.94879C62.2211 0.757782 61.7309 0.300895 61.2962 0.130117C60.5488 -0.162646 59.3156 0.130117 59.3001 0.130117L41.3351 16.099H21.374L3.40906 0.132335C3.39353 0.132335 2.16038 -0.160428 1.41295 0.132335C0.976024 0.303113 0.488087 0.757782 0.162056 1.94879C-0.177282 7.30945 -0.0819127 14.2271 1.41295 22.0895C2.44205 27.5056 3.9103 32.1943 5.40517 36.0623L3.40906 38.0584L1.41295 40.0545L31.3546 68L61.2962 40.0545L59.3001 38.0584L57.304 36.0623C58.7988 32.1943 60.2671 27.5056 61.2962 22.0895C62.791 14.2271 62.8864 7.30945 62.5471 1.95101V1.94879Z" fill="url(#paint0_linear_4279_796)"/>
<path d="M15.3857 37.9922H25.3663V41.9844L15.3857 37.9922Z" fill="#261D1D"/>
<path d="M38.3409 45.9766C36.8816 45.9766 35.6684 47.019 35.4022 48.4007H27.3069C27.0408 47.0212 25.8276 45.9766 24.3682 45.9766C22.7136 45.9766 21.374 47.3162 21.374 48.9707C21.374 50.6253 22.7136 51.9649 24.3682 51.9649C25.8276 51.9649 27.0408 50.9225 27.3069 49.5407H35.4022C35.6684 50.9203 36.8816 51.9649 38.3409 51.9649C39.9955 51.9649 41.3351 50.6253 41.3351 48.9707C41.3351 47.3162 39.9955 45.9766 38.3409 45.9766Z" fill="#261D1D"/>
<path d="M47.3233 37.9922H37.3428V41.9844L47.3233 37.9922Z" fill="#261D1D"/>
<defs>
<linearGradient id="paint0_linear_4279_796" x1="0.000149455" y1="33.9996" x2="62.709" y2="33.9996" gradientUnits="userSpaceOnUse">
<stop stop-color="#BB4320"/>
<stop offset="0.51" stop-color="#E26225"/>
</linearGradient>
</defs>
</svg>
