<svg width="40" height="40" viewBox="0 0 40 40" fill="none" xmlns="http://www.w3.org/2000/svg">
<rect x="39" y="39" width="38" height="38" rx="19" transform="rotate(-180 39 39)" stroke="#0C0B0B" stroke-width="2"/>
<path d="M15.1885 17.7236C15.1 17.6351 15.1 17.4908 15.1885 17.4023L19.8398 12.752C19.9284 12.6635 20.0716 12.6634 20.1602 12.752L24.8105 17.4023C24.855 17.4468 24.8769 17.504 24.877 17.5625C24.877 17.6212 24.8549 17.6792 24.8105 17.7236L24.8105 17.7246C24.722 17.8122 24.5785 17.8118 24.4902 17.7236L21.0801 14.3125L20.2266 13.459L20.2266 27.0879C20.2265 27.2129 20.125 27.3143 20 27.3145C19.8749 27.3145 19.7735 27.213 19.7734 27.0879L19.7734 13.459L15.5088 17.7236C15.4203 17.8118 15.277 17.8119 15.1885 17.7236Z" fill="#0C0B0B" stroke="#0C0B0B"/>
</svg>
