<svg width="44" height="44" viewBox="0 0 44 44" fill="none" xmlns="http://www.w3.org/2000/svg">
<circle cx="22" cy="22" r="21.5" stroke="#261D1D"/>
<path d="M31.5297 25.9301C31.3697 25.6601 30.9197 25.2401 29.7997 25.4401C29.1797 25.5501 28.5497 25.6001 27.9197 25.5701C25.5897 25.4701 23.4797 24.4001 22.0097 22.7501C20.7097 21.3001 19.9097 19.4101 19.8997 17.3701C19.8997 16.2301 20.1197 15.1301 20.5697 14.0901C21.0097 13.0801 20.6997 12.5501 20.4797 12.3301C20.2497 12.1001 19.7097 11.7801 18.6497 12.2201C14.5597 13.9401 12.0297 18.0401 12.3297 22.4301C12.6297 26.5601 15.5297 30.0901 19.3697 31.4201C20.2897 31.7401 21.2597 31.9301 22.2597 31.9701C22.4197 31.9801 22.5797 31.9901 22.7397 31.9901C26.0897 31.9901 29.2297 30.4101 31.2097 27.7201C31.8797 26.7901 31.6997 26.2001 31.5297 25.9301Z" fill="#261D1D"/>
</svg>
