<svg width="44" height="48" viewBox="0 0 44 48" fill="none" xmlns="http://www.w3.org/2000/svg">
<path d="M43.8863 1.36737C43.6575 0.531699 43.3136 0.211123 43.0086 0.0912966C42.4842 -0.114121 41.6189 0.0912966 41.608 0.0912966L29.0029 11.2959H14.9971L2.39197 0.0928528C2.38108 0.0928528 1.51584 -0.112565 0.991399 0.0928528C0.68483 0.21268 0.342467 0.531699 0.113707 1.36737C-0.124391 5.12869 -0.0574743 9.98246 0.991399 15.4992C1.71347 19.2994 2.74367 22.5892 3.79255 25.3032L2.39197 26.7037L0.991399 28.1043L22 47.7123L43.0086 28.1043L41.608 26.7037L40.2075 25.3032C41.2563 22.5892 42.2865 19.2994 43.0086 15.4992C44.0575 9.98246 44.1244 5.12869 43.8863 1.36893V1.36737Z" fill="#E7C19A"/>
<path d="M10.7949 26.6572H17.7978V29.4584L10.7949 26.6572Z" fill="#261D1D"/>
<path d="M26.9019 32.2598C25.878 32.2598 25.0267 32.9912 24.84 33.9607H19.1599C18.9731 32.9927 18.1219 32.2598 17.0979 32.2598C15.937 32.2598 14.9971 33.1997 14.9971 34.3606C14.9971 35.5215 15.937 36.4615 17.0979 36.4615C18.1219 36.4615 18.9731 35.7301 19.1599 34.7606H24.84C25.0267 35.7285 25.878 36.4615 26.9019 36.4615C28.0629 36.4615 29.0028 35.5215 29.0028 34.3606C29.0028 33.1997 28.0629 32.2598 26.9019 32.2598Z" fill="#261D1D"/>
<path d="M33.205 26.6572H26.2021V29.4584L33.205 26.6572Z" fill="#261D1D"/>
</svg>
