<svg width="264" height="300" viewBox="0 0 264 300" fill="none" xmlns="http://www.w3.org/2000/svg">
<g clip-path="url(#clip0_4281_2036)">
<path d="M0.046875 298.955C19.0824 266.874 43.1863 231.724 50.7954 229.571C73.6355 223.356 137.655 208.708 192.259 234.329C217.24 246.05 226.977 259.963 229.75 264.218C245.91 288.949 242.273 290.767 240.583 300.013H156.897C117.329 300.013 66.7357 299.11 66.7357 299.11C55.6446 298.93 18.012 294.881 0.0855651 300.013" fill="url(#paint0_linear_4281_2036)"/>
<path d="M0.0780732 300C-2.07568 256.159 43.3338 231.492 50.9558 229.3L70.3138 255.334L44.5074 262.207L69.6432 281.909L46.9191 283.508L66.8317 299.471C55.7147 299.304 40.9092 299.136 22.9956 299.987H0.0780732V300Z" fill="#CECDC9"/>
<path d="M114.936 280.581C108.268 280.182 101.743 278.647 95.3588 276.739C93.6435 276.868 88.0592 276.507 85.0801 275.965C88.588 275.114 92.1346 274.701 95.7199 274.418C102.31 275.836 108.836 277.68 114.936 280.594V280.581Z" fill="#C74D00"/>
<path d="M151.975 266.217C145.307 265.817 138.782 264.283 132.398 262.374C130.683 262.503 125.098 262.142 122.119 261.601C125.627 260.75 129.174 260.337 132.759 260.053C139.349 261.472 145.875 263.316 151.975 266.23V266.217Z" fill="#C74D00"/>
<path d="M116.006 242.027C109.339 241.627 102.813 240.093 96.4291 238.185C94.7138 238.313 89.1295 237.952 86.1504 237.411C89.6583 236.56 93.2049 236.147 96.7902 235.864C103.38 237.282 109.906 239.126 116.006 242.04V242.027Z" fill="#C74D00"/>
<path d="M180.09 252.549C173.423 252.149 166.897 250.615 160.513 248.706C158.798 248.835 153.214 248.474 150.234 247.933C153.742 247.082 157.289 246.669 160.874 246.385C167.464 247.804 173.99 249.648 180.09 252.562V252.549Z" fill="#C74D00"/>
<path d="M193.967 288.756C187.3 288.357 180.774 286.822 174.39 284.914C172.675 285.043 167.09 284.682 164.111 284.14C167.619 283.289 171.166 282.876 174.751 282.593C181.341 284.011 187.867 285.855 193.967 288.769V288.756Z" fill="#C74D00"/>
<path d="M228.556 283.921C222.83 281.729 215.26 277.345 211.404 274.405C208.025 273.283 204.723 272.032 201.551 270.382C205.162 270.639 208.657 271.336 212.165 272.161C217.994 275.539 223.643 279.292 228.556 283.921Z" fill="#C74D00"/>
<path d="M33.804 244.851C30.9668 248.152 27.9747 251.285 24.9182 254.354L24.4023 252.678C26.7753 252.923 29.1225 253.245 31.4826 253.542C33.8427 253.851 36.1899 254.225 38.5371 254.56L39.1175 256.868C34.9389 259.963 30.7346 263.019 26.4142 265.92L26.2595 264.36C27.9618 265.275 29.6642 266.217 31.3537 267.184C33.0431 268.151 34.7197 269.131 36.3576 270.175C34.5134 269.556 32.682 268.886 30.8765 268.177C29.058 267.48 27.2654 266.745 25.4728 266.01L25.318 264.45C27.317 262.787 29.3418 261.162 31.3924 259.55C33.43 257.926 35.5193 256.378 37.5699 254.805L38.1502 257.113C33.4558 256.353 28.7614 255.566 24.1057 254.599L23.5898 252.923C26.9043 250.138 30.2703 247.404 33.7911 244.851H33.804Z" fill="#BDA497"/>
<path d="M37.1951 294.133C32.4362 294.713 27.6257 294.468 22.8668 293.991L22.0801 291.812C23.6019 290.278 25.1753 288.795 26.8261 287.376C32.9649 282.27 33.1713 282.451 28.2318 288.743C26.8648 290.432 25.4203 292.044 23.9243 293.604L23.1376 291.425C27.8965 291.902 32.6554 292.612 37.208 294.133H37.1951Z" fill="#BDA497"/>
<path d="M194.29 243.639H148.197V293.089H194.29V243.639Z" fill="#BB4320"/>
<path d="M74.9961 293.088L88.6666 290.419L95.5277 206.696L92.1875 160.741L64.2402 159.954L74.9961 293.088Z" fill="#BB4320"/>
<path d="M69.2698 224.04L74.4672 290.085C70.8174 290.961 70.495 291.49 68.1607 292.173C62.0605 293.979 63.2213 294.082 62.0477 295.423C60.1518 297.576 63.1955 300.013 63.1955 300.013L90.0336 298.93L93.9542 225.51L69.2698 224.04Z" fill="#54292A"/>
<path d="M252.402 293.088C273.875 275.281 250.196 214.394 235.791 187.548C229.768 176.304 206.812 134.888 158.617 113.019C150.143 109.176 142.728 106.778 137.479 105.282L138.111 63.4143L40.2891 64.0719L42.2365 150.696C61.5429 181.849 96.0288 227.469 153.135 262.013C176.917 276.403 231.122 310.728 252.415 293.075L252.402 293.088Z" fill="url(#paint1_linear_4281_2036)"/>
<path d="M65.4256 183.912C57.1588 172.849 48.892 161.772 40.6251 150.709L38.6777 64.0848L119.14 63.5432C121.178 86.3662 97.3579 106.262 99.3956 129.085" fill="#BB4320"/>
<path d="M52.9152 62.8857L54.9271 149.304C55.9073 159.555 58.1513 168.452 60.8854 176.06C68.8298 198.122 165.71 281.097 171.565 282.748C172.133 270.33 170.998 238.804 171.565 226.386L187.609 209.482L154.077 210.049L147.487 190.849L118.25 181.965L121.693 146.725L99.3434 151.599L128.284 104.173L115.954 103.284L132.295 62.8728H52.9023L52.9152 62.8857Z" fill="#F1DFD2"/>
<path d="M178.93 265.146L169.773 284.578L139.131 256.752L191.711 207.818L178.93 265.146Z" fill="#CECDC9"/>
<path d="M55.5856 149.82L127.42 75.29L52.916 78.0108L55.5856 149.82Z" fill="#CECDC9"/>
<path d="M75.5115 141.528C75.6663 142.753 75.7437 143.965 75.7437 145.19C75.7437 145.796 75.9629 146.441 75.6663 146.983C75.3825 147.537 75.0085 148.066 74.196 148.517L73.9381 148.466C72.8806 147.112 72.9451 146.106 73.706 144.804C74.1445 143.669 74.6603 142.56 75.2536 141.477L75.5115 141.528Z" fill="#C28166"/>
<path d="M70.1722 140.587C69.8498 141.773 69.4629 142.934 68.9986 144.069C68.7664 144.623 68.7277 145.306 68.2506 145.706C67.7863 146.106 67.2317 146.454 66.3032 146.57L66.0839 146.428C65.6196 144.778 66.0581 143.875 67.2575 142.947C68.0958 142.057 68.9986 141.232 69.9529 140.445L70.1722 140.587Z" fill="#C28166"/>
<path d="M66.9474 134.075C66.1607 135.03 65.3353 135.919 64.4326 136.757C63.9941 137.17 63.6717 137.776 63.0784 137.931C62.4852 138.098 61.8403 138.189 60.9505 137.918L60.8086 137.699C61.0665 135.997 61.8403 135.365 63.3234 135.017C64.4584 134.552 65.6191 134.166 66.8056 133.856L66.9474 134.075Z" fill="#F1DFD2"/>
<path d="M93.0243 143.089C93.7723 144.069 94.4688 145.074 95.0749 146.132C95.3844 146.647 95.9003 147.099 95.9132 147.718C95.9519 148.337 95.8874 148.981 95.4231 149.781L95.1781 149.871C93.5789 149.239 93.1275 148.337 93.1275 146.828C92.9212 145.629 92.818 144.404 92.7793 143.179L93.0243 143.089Z" fill="#C28166"/>
<path d="M97.6161 136.886C98.7123 137.428 99.7827 138.047 100.789 138.73C101.292 139.066 101.949 139.233 102.246 139.788C102.556 140.329 102.788 140.935 102.71 141.864L102.53 142.044C100.814 142.173 100.015 141.567 99.3572 140.2C98.6478 139.207 98.0159 138.15 97.4355 137.067L97.6161 136.886Z" fill="#C28166"/>
<path d="M102.646 130.659C103.871 130.555 105.097 130.517 106.322 130.568C106.928 130.594 107.573 130.401 108.114 130.71C108.656 131.007 109.172 131.406 109.597 132.232L109.546 132.477C108.153 133.482 107.147 133.379 105.87 132.567C104.748 132.09 103.665 131.522 102.607 130.891L102.659 130.646L102.646 130.659Z" fill="#C28166"/>
<path d="M84.6298 175.737C84.2945 176.923 83.9076 178.084 83.4175 179.206C83.1853 179.76 83.1337 180.443 82.6566 180.83C82.1794 181.23 81.6248 181.578 80.7092 181.681L80.4899 181.539C80.0385 179.876 80.4899 178.986 81.7022 178.071C82.5405 177.194 83.4562 176.369 84.4234 175.595L84.6427 175.737H84.6298Z" fill="#C28166"/>
<path d="M92.3546 175.698C92.5739 176.91 92.7286 178.122 92.7802 179.347C92.806 179.953 93.0639 180.585 92.806 181.14C92.561 181.707 92.1999 182.262 91.426 182.752L91.1681 182.713C90.0332 181.423 90.0461 180.418 90.7425 179.064C91.1165 177.903 91.5808 176.769 92.0967 175.66L92.3546 175.698Z" fill="#C28166"/>
<path d="M100.349 176.008C101.162 176.923 101.936 177.89 102.619 178.896C102.954 179.399 103.509 179.799 103.574 180.418C103.651 181.037 103.638 181.681 103.238 182.519L103.006 182.623C101.368 182.107 100.852 181.243 100.736 179.734C100.453 178.548 100.246 177.336 100.117 176.111L100.349 176.008Z" fill="#C28166"/>
<path d="M14.4824 56.0517C38.0835 76.8116 61.6717 97.5715 85.2728 118.331C110.589 97.5715 135.905 76.8116 161.222 56.0517L122.97 0H42.0557L14.4824 56.0517Z" fill="#E26225"/>
<path d="M81.3524 67.4244C73.7304 66.4702 65.3991 64.9616 56.5649 62.6535C35.6851 57.1992 18.7259 49.0113 5.95816 41.4036C4.93932 41.0555 4.20421 40.1142 4.11393 39.0182C4.03655 37.9995 4.48794 36.9293 5.54547 36.3619L60.6789 6.31812L81.3524 67.4244Z" fill="#54292A"/>
<path d="M78.2055 54.0789L49.6134 55.0073C39.2315 51.3324 28.8625 47.6704 18.4806 43.9956C18.1711 43.9182 10.7168 42.0614 10.7168 39.3407C10.7168 37.9094 12.7932 36.7747 16.7138 34.6858C19.8993 32.9838 22.6721 31.8878 24.5679 31.2172C24.8774 32.0038 25.187 32.7775 25.5094 33.564C27.1473 32.6614 29.7524 31.1786 32.9508 29.2573C37.7355 26.3819 38.9736 25.4148 39.6442 25.8661C40.4954 26.4463 40.4051 29.3218 35.1819 40.6301C39.1799 36.0913 42.5331 32.4164 45.0738 29.6828C46.6085 28.0323 48.4785 26.0466 49.5747 26.5495C50.4646 26.9621 50.4388 28.8189 50.413 30.3017C50.3743 32.2746 50.0003 35.3305 48.2335 38.9796C54.785 33.8477 61.3495 28.7286 67.901 23.5967L78.2055 54.0789Z" fill="#CECDC9"/>
<path d="M45.5896 37.0713L41.0629 43.5958L37.7871 46.2392" fill="#F1DFD2"/>
<path d="M45.5896 37.0713C45.2027 39.8178 43.7841 42.2032 42.043 44.2792C40.8565 45.3108 39.3476 45.8781 37.7871 46.2392C38.3933 44.8466 39.296 43.7248 40.3278 42.6803L40.0956 42.9253C41.424 40.5657 43.1651 38.3994 45.6025 37.0713H45.5896Z" fill="#BDA497"/>
<path d="M29.6112 35.6011L23.769 40.9651L19.9902 42.809" fill="#F1DFD2"/>
<path d="M29.6139 35.6011C28.6338 38.1799 26.738 40.2043 24.5842 41.8419C23.2043 42.5769 21.6051 42.7961 20.0059 42.809C20.9086 41.584 22.0306 40.6943 23.2558 39.8949L22.9721 40.0883C24.7777 38.0768 26.9572 36.3489 29.6139 35.6011Z" fill="#BDA497"/>
<path d="M65.1294 36.3748C65.0133 40.1012 63.7752 43.6343 62.2018 46.9481C60.9508 48.5986 59.3001 49.9267 57.5332 51.0614C58.1393 49.1401 59.0808 47.4381 60.1641 45.7876L59.9965 46.0842C61.1314 42.5898 62.6661 39.1728 65.1423 36.3877L65.1294 36.3748Z" fill="#BDA497"/>
<path d="M95.6797 69.3587C103.353 68.8687 111.749 67.863 120.712 66.0964C141.876 61.9058 159.286 54.7623 172.493 47.9412C173.537 47.6446 174.311 46.7549 174.466 45.6717C174.608 44.6531 174.208 43.57 173.202 42.9381L119.926 9.6062L95.6797 69.3587Z" fill="#54292A"/>
<path d="M99.7031 55.2652L128.153 58.3985C138.78 55.536 149.407 52.6734 160.021 49.8109C160.344 49.7593 167.901 48.4827 168.108 45.762C168.211 44.3308 166.225 43.0413 162.485 40.6559C159.428 38.7217 156.758 37.4065 154.914 36.5941C154.54 37.3549 154.179 38.1028 153.805 38.8635C152.245 37.832 149.755 36.1557 146.712 34.0024C142.159 30.7659 140.999 29.7085 140.289 30.1083C139.399 30.6112 139.27 33.4995 143.629 45.1818C139.993 40.3593 136.91 36.4265 134.589 33.4995C133.183 31.733 131.468 29.6054 130.333 30.0309C129.417 30.3662 129.288 32.2229 129.211 33.7058C129.108 35.6786 129.237 38.7475 130.733 42.5255C124.581 36.9036 118.429 31.2946 112.277 25.6726L99.7031 55.2652Z" fill="#CECDC9"/>
<path d="M113.822 36.8799L116.763 47.3888L119.832 52.2886" fill="#F1DFD2"/>
<path d="M113.813 36.8776C115.979 39.9078 117.14 43.4667 117.901 47.0642L117.759 46.7547C118.662 48.5213 119.423 50.3136 119.81 52.2864C118.172 50.9712 116.663 49.4754 115.605 47.696C114.38 44.2274 113.529 40.5783 113.813 36.8647V36.8776Z" fill="#BDA497"/>
<path d="M133.174 39.6758L136.978 46.6645L139.97 49.6431" fill="#F1DFD2"/>
<path d="M133.171 39.6758C135.441 41.2618 136.95 43.5957 138.02 46.0972L137.814 45.8264C138.73 46.9869 139.503 48.1861 139.955 49.6431C138.446 49.1145 137.001 48.3795 135.931 47.2319C134.409 44.9754 133.261 42.4481 133.158 39.6758H133.171Z" fill="#BDA497"/>
<path d="M149.215 39.9465L154.451 45.9037L158.01 48.1473" fill="#F1DFD2"/>
<path d="M149.215 39.9465C151.781 40.991 153.754 42.938 155.341 45.1301L155.083 44.9109C156.218 45.8393 157.237 46.845 158.01 48.1602C156.424 47.9797 154.851 47.58 153.561 46.7032C151.588 44.8464 149.911 42.6286 149.215 39.9465Z" fill="#BDA497"/>
<path d="M85.2727 123.786L14.4824 56.0519L84.2796 0L161.209 56.0519L85.2727 123.786Z" fill="#E26225"/>
<path d="M160.628 56.8512L101.832 109.537L105.353 79.0423L112.188 69.7197L126.4 64.9359L133.61 54.7236L160.628 56.8512Z" fill="#F1DFD2"/>
<path d="M14.25 55.8762L71.086 110.69L68.6872 80.0918L62.1872 70.5113L48.1556 65.2117L41.3203 54.7544L14.25 55.8762Z" fill="#F1DFD2"/>
<path d="M73.1751 60.6808V49.9785H57.9698L57.3379 51.6548L73.1751 60.6808Z" fill="#542918"/>
<path d="M100.4 60.9001V50.1978H115.606L116.225 51.874L100.4 60.9001Z" fill="#542918"/>
<path d="M42.0811 66.0084C40.9977 66.5886 39.8757 67.0915 38.7279 67.517C38.1605 67.7233 37.6317 68.1617 37.0256 68.0844C36.4065 68.0199 35.7746 67.8523 35.0653 67.2462L35.0137 66.9884C35.9035 65.5184 36.8708 65.2347 38.3668 65.4797C39.592 65.4797 40.8043 65.5829 42.0295 65.7505L42.0682 66.0084H42.0811Z" fill="#C28166"/>
<path d="M46.8007 70.9063C46.143 71.9508 45.4337 72.9436 44.6599 73.8849C44.273 74.3491 44.0408 74.9938 43.4605 75.2259C42.893 75.4709 42.2611 75.6514 41.3454 75.4838L41.1777 75.2904C41.2164 73.5754 41.9 72.8405 43.3186 72.3118C44.3761 71.7058 45.4852 71.1771 46.6202 70.7129L46.7878 70.9063H46.8007Z" fill="#C28166"/>
<path d="M51.7537 76.309C52.0246 77.5082 52.2309 78.7202 52.347 79.9323C52.3986 80.5383 52.6952 81.1573 52.4502 81.7246C52.2309 82.3049 51.8956 82.8722 51.1347 83.4009L50.8768 83.3751C49.6903 82.1372 49.6645 81.1315 50.2835 79.7518C50.6059 78.5784 51.0186 77.4179 51.4958 76.2832L51.7537 76.309Z" fill="#C28166"/>
<path d="M127.665 65.7484C128.877 65.5808 130.102 65.4905 131.328 65.4776C131.934 65.4776 132.579 65.2455 133.12 65.5292C133.675 65.8 134.204 66.1739 134.668 66.9862L134.629 67.2441C133.288 68.3144 132.282 68.2628 130.966 67.5149C129.819 67.0894 128.71 66.5736 127.613 66.0063L127.652 65.7484H127.665Z" fill="#C28166"/>
<path d="M123.06 70.6997C124.195 71.1639 125.304 71.6926 126.362 72.2986C126.891 72.5952 127.561 72.7241 127.884 73.2528C128.232 73.7686 128.503 74.3617 128.503 75.2901L128.335 75.4835C126.633 75.7414 125.794 75.1869 125.033 73.8846C124.26 72.9433 123.55 71.9376 122.893 70.906L123.06 70.7126V70.6997Z" fill="#C28166"/>
<path d="M118.198 76.2703C118.675 77.405 119.088 78.5526 119.41 79.7388C119.565 80.3191 119.965 80.8864 119.823 81.4925C119.707 82.0985 119.475 82.7174 118.817 83.3622L118.559 83.3879C117.166 82.3693 116.973 81.3893 117.347 79.9194C117.463 78.7073 117.669 77.4952 117.94 76.296L118.198 76.2703Z" fill="#C28166"/>
<path d="M89.0253 124.676H81.9321L71.0859 110.144C75.9738 109.241 80.8617 108.325 85.7495 107.423C90.6374 108.325 95.5253 109.241 100.413 110.144L89.0382 124.676H89.0253Z" fill="#F1DFD2"/>
<path d="M89.31 113.109C89.1295 113.818 88.3815 113.715 87.1563 115.134C86.3567 116.075 86.189 116.681 85.7376 116.668C85.2476 116.655 85.1573 115.933 84.3577 114.979C83.2486 113.664 82.3845 113.818 82.1782 113.096C81.8299 111.923 83.5323 109.537 85.7376 109.537C87.9301 109.537 89.6195 111.884 89.2971 113.096L89.31 113.109Z" fill="#542918"/>
<path opacity="0.36" d="M104.592 86.4436C108.446 86.4436 111.57 83.4416 111.57 79.7385C111.57 76.0354 108.446 73.0334 104.592 73.0334C100.739 73.0334 97.6152 76.0354 97.6152 79.7385C97.6152 83.4416 100.739 86.4436 104.592 86.4436Z" fill="#666666"/>
<path opacity="0.36" d="M71.8463 86.4436C75.6996 86.4436 78.8234 83.4416 78.8234 79.7385C78.8234 76.0354 75.6996 73.0334 71.8463 73.0334C67.9929 73.0334 64.8691 76.0354 64.8691 79.7385C64.8691 83.4416 67.9929 86.4436 71.8463 86.4436Z" fill="#666666"/>
<path d="M71.0603 86.0439C74.8852 86.0439 77.9859 82.9438 77.9859 79.1196C77.9859 75.2954 74.8852 72.1953 71.0603 72.1953C67.2354 72.1953 64.1348 75.2954 64.1348 79.1196C64.1348 82.9438 67.2354 86.0439 71.0603 86.0439Z" stroke="#544D59" stroke-miterlimit="10"/>
<path d="M104.541 87.4882C108.366 87.4882 111.466 84.3881 111.466 80.5639C111.466 76.7397 108.366 73.6396 104.541 73.6396C100.716 73.6396 97.6152 76.7397 97.6152 80.5639C97.6152 84.3881 100.716 87.4882 104.541 87.4882Z" stroke="#544D59" stroke-miterlimit="10"/>
<path d="M97.0219 79.1196H77.9863V80.9764H97.0219V79.1196Z" fill="#63595E" stroke="#544D59" stroke-miterlimit="10"/>
<path d="M85.5184 43.1575L68.8945 25.402L85.5184 7.63354L102.142 25.402L85.5184 43.1575Z" fill="#BB4320"/>
<g opacity="0.63">
<path d="M71.5767 41.1717C69.1264 40.7591 66.8307 39.7662 64.6383 38.6186C63.7097 37.7031 62.8328 36.736 62.0977 35.6013C63.2971 36.1687 64.3675 36.9036 65.3863 37.6902C66.8565 38.1415 69.926 39.7404 71.5896 41.1717H71.5767Z" fill="#BB4320"/>
</g>
<g opacity="0.63">
<path d="M69.6155 42.1646C67.1394 42.3838 64.6632 42.0099 62.2515 41.4554C61.1166 40.7978 60.0204 40.0886 59.0273 39.186C60.3428 39.431 61.5551 39.8694 62.7416 40.3723C64.2763 40.4368 67.6552 41.1976 69.6155 42.1517V42.1646Z" fill="#BB4320"/>
</g>
<g opacity="0.63">
<path d="M102.258 41.0685C103.934 39.6759 107.03 38.1157 108.513 37.6901C109.544 36.9165 110.615 36.2073 111.827 35.6528C111.066 36.7746 110.176 37.7288 109.235 38.6314C107.03 39.7403 104.721 40.6945 102.258 41.0685Z" fill="#BB4320"/>
</g>
<g opacity="0.63">
<path d="M104.193 42.0871C106.167 41.1587 109.571 40.4495 111.106 40.4108C112.305 39.9337 113.518 39.5082 114.833 39.2761C113.814 40.1658 112.705 40.8621 111.57 41.4939C109.159 42.0097 106.67 42.345 104.193 42.0871Z" fill="#BB4320"/>
</g>
<path opacity="0.85" d="M62.2139 58.1406L58.8994 58.6822L56.7715 56.0904L57.958 52.9571L61.2724 52.4155L63.4004 55.0073L62.2139 58.1406Z" fill="#C2C7C2"/>
<path d="M61.9823 56.6705L60.3703 56.5415L59.6738 55.0845L60.5895 53.7563L62.2016 53.8853L62.898 55.3424L61.9823 56.6705Z" fill="#DBE5DC"/>
<path d="M96.8301 289.117L110.578 291.296L145.735 215L154.814 180.74L127.421 176.163L96.8301 289.117Z" fill="#E26225"/>
<path d="M97.3979 286.345C93.7352 287.17 90.6658 287.983 88.3186 288.64C82.1927 290.368 80.7224 291.142 79.5359 292.457C77.6143 294.584 77.1629 297.241 77.0469 298.956H110.011L145.735 215.001L147.785 207.818L133.805 216.148L128.363 225.832H122.921L123.785 213.286L115.763 218.727L97.4237 286.345H97.3979Z" fill="#542918"/>
<path d="M262.385 254.96C265.958 276.854 256.079 294.326 252.532 300H147.256C148.494 289.8 149.023 289.001 149.023 289.001C153.15 282.812 166.059 288.163 169.09 283.276C170.225 281.432 170.135 277.847 164.654 270.24C161.765 266.23 159.134 261.11 158.45 254.96C155.922 232.188 180.826 202.854 210.424 202.996C239.468 203.137 258.581 231.634 262.398 254.96H262.385Z" fill="#E26225"/>
<path d="M168.136 284.939C156.71 284.398 147.308 284.836 140.434 285.429C133.779 286.009 129.162 286.744 126.493 290.394C124.145 293.604 124.352 297.627 124.713 299.987H173.785C175.346 297.086 176.906 294.172 178.467 291.27C172.857 290.845 167.259 290.419 161.649 290.007C163.816 288.318 165.983 286.616 168.149 284.926L168.136 284.939Z" fill="#542918"/>
<g opacity="0.5">
<path d="M178.892 256.494C178.686 257.706 178.415 258.905 178.054 260.066C177.873 260.646 177.912 261.33 177.461 261.768C177.035 262.219 176.519 262.619 175.616 262.812L175.384 262.696C174.752 261.098 175.113 260.156 176.223 259.125C176.971 258.158 177.783 257.242 178.66 256.378L178.892 256.494Z" fill="#BB4320"/>
</g>
<g opacity="0.5">
<path d="M186.566 255.646C186.914 256.819 187.198 258.018 187.379 259.23C187.469 259.824 187.804 260.43 187.598 261.01C187.404 261.603 187.121 262.183 186.398 262.763H186.14C184.877 261.59 184.786 260.584 185.328 259.179C185.573 257.98 185.908 256.806 186.321 255.646H186.579H186.566Z" fill="#BB4320"/>
</g>
<g opacity="0.5">
<path d="M194.549 255.089C195.464 255.914 196.315 256.791 197.115 257.719C197.502 258.183 198.095 258.519 198.224 259.125C198.366 259.731 198.43 260.376 198.108 261.252L197.889 261.381C196.199 261.046 195.606 260.234 195.322 258.751C194.91 257.603 194.587 256.417 194.316 255.218L194.536 255.089H194.549Z" fill="#BB4320"/>
</g>
<g opacity="0.5">
<path d="M182.336 231.866C181.73 232.794 181.072 233.684 180.337 234.509C179.976 234.922 179.756 235.502 179.228 235.67C178.699 235.85 178.106 235.953 177.254 235.708L177.1 235.502C177.19 233.71 177.744 233.284 179.099 232.859C180.092 232.382 181.123 231.995 182.181 231.66L182.336 231.866Z" fill="#BB4320"/>
</g>
<g opacity="0.5">
<path d="M189.377 233.529C189.287 234.574 189.119 235.605 188.874 236.611C188.758 237.101 188.835 237.707 188.448 238.068C188.074 238.442 187.61 238.764 186.746 238.906L186.514 238.79C185.714 237.14 186.101 236.585 187.017 235.709C187.662 234.896 188.371 234.135 189.145 233.413L189.377 233.529Z" fill="#BB4320"/>
</g>
<g opacity="0.5">
<path d="M196.587 235.515C197.116 236.392 197.58 237.307 197.967 238.262C198.16 238.726 198.573 239.151 198.47 239.667C198.38 240.183 198.186 240.712 197.567 241.305L197.309 241.343C196.522 240.982 196.174 240.544 195.916 240.093C195.645 239.641 195.903 239.1 195.916 238.61C195.968 237.591 196.11 236.572 196.316 235.567L196.574 235.528L196.587 235.515Z" fill="#BB4320"/>
</g>
<g opacity="0.5">
<path d="M187.881 281.703C188.178 282.657 188.41 283.637 188.565 284.617C188.642 285.094 188.939 285.597 188.707 286.061C188.5 286.525 188.191 286.976 187.443 287.389L187.185 287.363C186.514 286.834 186.269 286.332 186.14 285.855C185.986 285.365 186.36 284.913 186.514 284.449C186.811 283.495 187.185 282.579 187.636 281.677L187.894 281.703H187.881Z" fill="#BB4320"/>
</g>
<g opacity="0.5">
<path d="M193.647 278.621C194.356 279.343 195.027 280.104 195.607 280.916C195.891 281.316 196.394 281.625 196.407 282.141C196.432 282.657 196.368 283.199 195.904 283.921L195.671 284.024C194.833 283.856 194.382 283.534 194.034 283.16C193.672 282.799 193.788 282.219 193.698 281.729C193.518 280.736 193.414 279.743 193.389 278.724L193.621 278.621H193.647Z" fill="#BB4320"/>
</g>
<g opacity="0.5">
<path d="M199.747 275.694C200.765 275.952 201.758 276.261 202.713 276.661C203.177 276.854 203.783 276.867 204.08 277.306C204.389 277.731 204.634 278.247 204.634 279.111L204.493 279.317C202.739 279.859 202.249 279.382 201.526 278.35C200.817 277.589 200.185 276.764 199.592 275.9L199.734 275.694H199.747Z" fill="#BB4320"/>
</g>
</g>
<defs>
<linearGradient id="paint0_linear_4281_2036" x1="0.046875" y1="259.873" x2="242.157" y2="259.873" gradientUnits="userSpaceOnUse">
<stop stop-color="#BB4320"/>
<stop offset="1" stop-color="#E26225"/>
</linearGradient>
<linearGradient id="paint1_linear_4281_2036" x1="40.3664" y1="63.9945" x2="260.963" y2="284.645" gradientUnits="userSpaceOnUse">
<stop stop-color="#BB4320"/>
<stop offset="0.51" stop-color="#E26225"/>
</linearGradient>
<clipPath id="clip0_4281_2036">
<rect width="263.158" height="300" fill="white"/>
</clipPath>
</defs>
</svg>
