<?xml version="1.0" encoding="UTF-8"?>
<svg id="Camada_2" data-name="Camada 2" xmlns="http://www.w3.org/2000/svg" xmlns:xlink="http://www.w3.org/1999/xlink" viewBox="0 0 222.09 265.73">
  <defs>
    <style>
      .cls-1 {
        fill: #c74d00;
      }

      .cls-2 {
        stroke: #542918;
        stroke-linecap: round;
        stroke-linejoin: round;
        stroke-width: .5px;
      }

      .cls-2, .cls-3 {
        fill: #542918;
      }

      .cls-4 {
        fill: #f1dfd2;
      }

      .cls-5 {
        fill: url(#Gradiente_sem_nome_23);
      }

      .cls-6 {
        fill: #bb4320;
      }

      .cls-7 {
        fill: #f1b69a;
      }

      .cls-8 {
        fill: #54292a;
      }

      .cls-9 {
        fill: url(#Gradiente_sem_nome_19);
      }

      .cls-10 {
        fill: #cecdc9;
      }

      .cls-11 {
        opacity: .63;
      }

      .cls-12 {
        fill: #63595e;
      }

      .cls-12, .cls-13 {
        stroke: #544d59;
        stroke-miterlimit: 10;
      }

      .cls-14 {
        fill: #f1dfd2;
      }

      .cls-15 {
        fill: #e26225;
      }

      .cls-16 {
        fill: #666;
        opacity: .36;
      }

      .cls-17 {
        fill: #bda497;
      }

      .cls-18 {
        fill: #c28166;
      }

      .cls-13 {
        fill: none;
      }

      .cls-19 {
        opacity: .5;
      }
    </style>
    <linearGradient id="Gradiente_sem_nome_19" data-name="Gradiente sem nome 19" x1=".11" y1="224" x2="203.99" y2="224" gradientUnits="userSpaceOnUse">
      <stop offset="0" stop-color="#bb4320"/>
      <stop offset="1" stop-color="#e26225"/>
    </linearGradient>
    <linearGradient id="Gradiente_sem_nome_23" data-name="Gradiente sem nome 23" x1="49.34" y1="82.7" x2="220.42" y2="253.79" gradientUnits="userSpaceOnUse">
      <stop offset="0" stop-color="#bb4320"/>
      <stop offset=".51" stop-color="#e26225"/>
    </linearGradient>
  </defs>
  <g id="Camada_2-2" data-name="Camada 2">
    <g id="Ilustrações">
      <g id="Padrão">
        <g id="Cauda">
          <path class="cls-9" d="M194.43,230.62c12.53-19.18,9.61-40.56,8.3-47.73-15.35,6.74-35.77,13.97-60.5,18.3-29.83,5.22-55.54,4.41-74.2,2.36-8.6.14-20.75-.59-34.65-4.56-14.7-4.2-25.89-10.47-33.26-15.39-.12,7.37.65,23.27,10.36,39.65,14.76,24.88,39.3,32.55,45.2,34.23,17.71,4.82,67.35,16.18,109.69-3.69,19.37-9.09,26.92-19.88,29.07-23.18Z"/>
          <path class="cls-10" d="M68.11,203.26c-8.62.13-20.81-.63-34.74-4.66-14.74-4.26-25.97-10.61-33.37-15.58-.11,7.44.68,23.5,10.44,40.04,14.83,25.14,39.44,32.92,45.35,34.62l15.01-20.19-20.01-5.33,19.49-15.28-17.62-1.24,15.44-12.38Z"/>
          <g id="Pelos">
            <path class="cls-1" d="M105.41,217.93c-4.73,2.26-9.79,3.69-14.9,4.79-2.78-.22-5.53-.54-8.25-1.2,2.3-.42,6.64-.7,7.97-.6,4.95-1.48,10.01-2.67,15.18-2.98h0Z"/>
            <path class="cls-1" d="M134.13,229.07c-4.73,2.26-9.79,3.69-14.9,4.79-2.78-.22-5.53-.54-8.25-1.2,2.3-.42,6.64-.7,7.97-.6,4.95-1.48,10.01-2.67,15.18-2.98h0Z"/>
            <path class="cls-1" d="M106.24,247.82c-4.73,2.26-9.79,3.69-14.9,4.79-2.78-.22-5.53-.54-8.25-1.2,2.3-.42,6.64-.7,7.97-.6,4.95-1.48,10.01-2.67,15.18-2.98h0Z"/>
            <path class="cls-1" d="M155.93,239.67c-4.73,2.26-9.79,3.69-14.9,4.79-2.78-.22-5.53-.54-8.25-1.2,2.3-.42,6.64-.7,7.97-.6,4.95-1.48,10.01-2.67,15.18-2.98h0Z"/>
            <path class="cls-1" d="M166.7,211.58c-4.73,2.26-9.79,3.69-14.9,4.79-2.78-.22-5.53-.54-8.25-1.2,2.3-.42,6.64-.7,7.97-.6,4.95-1.48,10.01-2.67,15.18-2.98h0Z"/>
            <path class="cls-1" d="M193.52,215.33c-3.81,3.6-8.19,6.51-12.71,9.12-2.71.64-5.43,1.18-8.23,1.38,2.46-1.29,5.02-2.25,7.64-3.12,3-2.29,8.85-5.68,13.3-7.38h0Z"/>
          </g>
          <g id="Pelos-2" data-name="Pelos">
            <path class="cls-17" d="M42.5,245.63c-2.73-1.98-5.34-4.1-7.91-6.26l.4-1.3c3.61-.74,7.25-1.35,10.89-1.95,0,0-.45,1.79-.45,1.79-1.6-1.23-3.22-2.43-4.79-3.68-1.59-1.24-3.16-2.51-4.71-3.8l.12-1.21c1.39-.58,2.78-1.14,4.19-1.68,1.4-.54,2.82-1.07,4.25-1.55-2.55,1.61-5.18,3.08-7.83,4.51,0,0,.12-1.21.12-1.21,3.35,2.25,6.61,4.62,9.85,7.02,0,0-.45,1.79-.45,1.79-1.83.26-3.65.55-5.47.79-1.83.23-3.66.48-5.49.67l.4-1.3c2.36,2.38,4.69,4.81,6.89,7.37h0Z"/>
            <path class="cls-17" d="M20.57,213.19c-3.71-.24-7.34-1.13-10.89-2.17,0,0,1.2-1.33,1.2-1.33,1.22,3.15,2.31,6.33,2.86,9.7-1-1.4-1.82-2.88-2.59-4.38-.77-1.5-1.47-3.02-2.11-4.57l1.2-1.33c3.55,1.05,7.08,2.27,10.33,4.08h0Z"/>
            <path class="cls-17" d="M45.13,207.41c-3.53,1.18-7.22,1.73-10.91,2.1,0,0,.61-1.69.61-1.69,2.32,2.46,4.53,4.99,6.3,7.9-1.45-.92-2.77-1.98-4.05-3.07-1.28-1.09-2.5-2.25-3.68-3.44l.61-1.69c3.68-.37,7.41-.56,11.11-.11h0Z"/>
          </g>
        </g>
        <g id="Patas_1" data-name="Patas 1">
          <rect id="Perna_dianteira_2" data-name="Perna dianteira 2" class="cls-6" x="132.95" y="222.02" width="35.74" height="38.35"/>
          <g id="Pata_dianteira_1" data-name="Pata dianteira 1">
            <polygon class="cls-6" points="76.19 260.37 86.79 258.3 92.11 193.37 89.52 157.73 67.85 157.12 76.19 260.37"/>
            <path class="cls-8" d="M71.75,206.82l4.03,51.22c-2.83.68-3.08,1.09-4.89,1.62-4.73,1.4-3.83,1.48-4.74,2.52-1.47,1.67.89,3.56.89,3.56l20.81-.84,3.04-56.94-19.14-1.14Z"/>
          </g>
        </g>
        <g id="Corpo">
          <path id="Corpo_base" data-name="Corpo base" class="cls-5" d="M213.74,260.37c16.65-13.81-1.71-61.03-12.88-81.85-4.67-8.72-22.47-40.84-59.84-57.8-6.57-2.98-12.32-4.84-16.39-6l.49-32.47-75.85.51,1.51,67.18c14.97,24.16,41.71,59.54,85.99,86.33,18.44,11.16,60.47,37.78,76.98,24.09Z"/>
          <path id="Corpo_base-2" data-name="Corpo base" class="cls-6" d="M68.77,175.7c-6.41-8.58-12.82-17.17-19.23-25.75l-1.51-67.18,62.39-.42c1.58,17.7-16.89,33.13-15.31,50.83"/>
          <g id="Barriga_branca" data-name="Barriga branca">
            <path class="cls-4" d="M59.07,81.84l1.56,67.02c.76,7.95,2.5,14.85,4.62,20.75,6.16,17.11,81.28,81.46,85.82,82.74.44-9.63-.44-34.08,0-43.71l12.44-13.11-26,.44-5.11-14.89-22.67-6.89,2.67-27.33-17.33,3.78,22.44-36.78-9.56-.69,12.67-31.34h-61.56Z"/>
          </g>
          <polygon class="cls-10" points="156.78 238.7 149.68 253.77 125.92 232.19 166.69 194.24 156.78 238.7"/>
          <polygon id="Sombra_barriga" data-name="Sombra barriga" class="cls-10" points="61.14 149.26 116.84 91.46 59.07 93.57 61.14 149.26"/>
          <g id="Pelos-3" data-name="Pelos">
            <g>
              <line class="cls-15" x1="76.49" y1="142.81" x2="75.47" y2="148.23"/>
              <path class="cls-18" d="M76.59,142.83c.12.95.18,1.89.18,2.84,0,.47.17.97-.06,1.39-.22.43-.51.84-1.14,1.19,0,0-.2-.04-.2-.04-.82-1.05-.77-1.83-.18-2.84.34-.88.74-1.74,1.2-2.58,0,0,.2.04.2.04h0Z"/>
            </g>
            <g>
              <line class="cls-15" x1="72.36" y1="142.04" x2="69.36" y2="146.67"/>
              <path class="cls-18" d="M72.45,142.1c-.25.92-.55,1.82-.91,2.7-.18.43-.21.96-.58,1.27-.36.31-.79.58-1.51.67l-.17-.11c-.36-1.28-.02-1.98.91-2.7.65-.69,1.35-1.33,2.09-1.94,0,0,.17.11.17.11h0Z"/>
            </g>
            <g>
              <line class="cls-15" x1="69.89" y1="136.97" x2="65.24" y2="139.95"/>
              <path class="cls-4" d="M69.95,137.05c-.61.74-1.25,1.43-1.95,2.08-.34.32-.59.79-1.05.91-.46.13-.96.2-1.65-.01l-.11-.17c.2-1.32.8-1.81,1.95-2.08.88-.36,1.78-.66,2.7-.9,0,0,.11.17.11.17h0Z"/>
            </g>
            <g>
              <line class="cls-15" x1="90.07" y1="144.08" x2="91.94" y2="149.27"/>
              <path class="cls-18" d="M90.17,144.04c.58.76,1.12,1.54,1.59,2.36.24.4.64.75.65,1.23.03.48-.02.98-.38,1.6l-.19.07c-1.24-.49-1.59-1.19-1.59-2.36-.16-.93-.24-1.88-.27-2.83,0,0,.19-.07.19-.07h0Z"/>
            </g>
            <g>
              <line class="cls-15" x1="93.66" y1="139.3" x2="97.61" y2="143.15"/>
              <path class="cls-18" d="M93.73,139.23c.85.42,1.68.9,2.46,1.43.39.26.9.39,1.13.82.24.42.42.89.36,1.61l-.14.14c-1.33.1-1.95-.37-2.46-1.43-.55-.77-1.04-1.59-1.49-2.43,0,0,.14-.14.14-.14h0Z"/>
            </g>
            <g>
              <line class="cls-15" x1="97.61" y1="134.5" x2="102.99" y2="135.73"/>
              <path class="cls-18" d="M97.63,134.4c.95-.08,1.9-.11,2.85-.07.47.02.97-.13,1.39.11.42.23.82.54,1.15,1.18l-.04.19c-1.08.78-1.86.7-2.85.07-.87-.37-1.71-.81-2.53-1.3,0,0,.04-.19.04-.19h0Z"/>
            </g>
            <g>
              <line class="cls-15" x1="83.58" y1="169.31" x2="80.53" y2="173.91"/>
              <path class="cls-18" d="M83.66,169.36c-.26.92-.56,1.82-.94,2.69-.18.43-.22.96-.59,1.26-.37.31-.8.58-1.51.66l-.17-.11c-.35-1.29,0-1.98.94-2.69.66-.68,1.36-1.32,2.11-1.92,0,0,.17.11.17.11h0Z"/>
            </g>
            <g>
              <line class="cls-15" x1="89.55" y1="169.32" x2="88.83" y2="174.79"/>
              <path class="cls-18" d="M89.65,169.33c.17.94.29,1.88.33,2.83.02.47.22.96.02,1.39-.19.44-.47.87-1.07,1.25,0,0-.2-.03-.2-.03-.88-1-.87-1.78-.33-2.83.29-.9.65-1.78,1.05-2.64,0,0,.2.03.2.03h0Z"/>
            </g>
            <g>
              <line class="cls-15" x1="95.76" y1="169.61" x2="98" y2="174.65"/>
              <path class="cls-18" d="M95.85,169.57c.64.71,1.23,1.46,1.76,2.24.26.39.69.7.74,1.18.06.48.05.98-.26,1.63l-.18.08c-1.27-.4-1.67-1.07-1.76-2.24-.22-.92-.38-1.86-.48-2.81,0,0,.18-.08.18-.08h0Z"/>
            </g>
          </g>
        </g>
        <g id="Cabeça_Padrão" data-name="Cabeça Padrão">
          <path class="cls-15" d="M28.49,68.2c18.3,16.1,36.59,32.2,54.89,48.3,19.63-16.1,39.26-32.2,58.89-48.3l-29.65-43.47h-62.74l-21.39,43.47Z"/>
          <g id="Orelhas">
            <g>
              <path class="cls-2" d="M32.8,64.8c-1.85-5.73-3.54-12.14-4.83-19.18-3.06-16.63-2.9-31.36-1.78-42.92-.09-.84.33-1.67,1.07-2.09.69-.39,1.59-.41,2.34.14l39.35,29.38-36.14,34.67Z"/>
              <path class="cls-14" d="M41.14,58.2l-10.1-20.02c-.85-8.58-1.7-17.15-2.55-25.73-.05-.25-1.2-6.15.71-7.04,1.01-.47,2.49.64,5.25,2.74,2.25,1.71,3.93,3.32,5.04,4.44-.45.48-.9.96-1.34,1.43,1.18.86,3.08,2.24,5.49,3.88,3.6,2.46,4.69,3.03,4.6,3.65-.12.79-2.18,1.67-11.86,1.66,4.51,1.36,8.21,2.54,10.97,3.45,1.67.55,3.69,1.23,3.69,2.18,0,.76-1.31,1.36-2.36,1.82-1.4.62-3.67,1.35-6.82,1.29,5.77,2.98,11.54,5.97,17.32,8.95l-18.03,17.29Z"/>
              <g>
                <polyline class="cls-4" points="42.33 29.46 36.24 28.37 33.3 26.9"/>
                <path class="cls-17" d="M42.33,29.46c-2.07.61-4.22.39-6.25-.17-1.11-.51-2.01-1.39-2.78-2.38.62-.01,1.2.06,1.75.18.56.11,1.09.27,1.61.46l-.25-.08c2.1.17,4.2.71,5.93,1.99h0Z"/>
              </g>
              <g>
                <polyline class="cls-4" points="38.08 17.62 32.38 15.22 29.83 13.14"/>
                <path class="cls-17" d="M38.08,17.62c-2.15.14-4.2-.55-6.06-1.55-.97-.74-1.65-1.8-2.19-2.93.61.12,1.15.32,1.66.56.52.23,1,.51,1.46.81l-.23-.14c2.01.63,3.94,1.61,5.35,3.25h0Z"/>
              </g>
              <path class="cls-17" d="M49.28,43.12c-2.67,1.12-5.56,1.4-8.41,1.36-1.58-.35-3.05-1.09-4.42-1.97,1.56-.2,3.07-.08,4.59.15,0,0-.26-.02-.26-.02,2.84-.34,5.74-.36,8.51.48h0Z"/>
            </g>
            <g>
              <path class="cls-2" d="M135.72,64.87c1.57-5.81,2.96-12.3,3.92-19.39,2.27-16.75,1.42-31.46-.25-42.96.05-.85-.41-1.65-1.17-2.03-.71-.36-1.61-.34-2.33.26l-37.91,31.2,37.74,32.92Z"/>
              <path class="cls-14" d="M126.4,58.36l9.48-20.33c.58-8.6,1.17-17.2,1.75-25.8.04-.25,1.01-6.18-.93-7.01-1.02-.44-2.47.71-5.17,2.9-2.19,1.78-3.83,3.44-4.9,4.6.46.46.92.93,1.39,1.39-1.15.9-3.01,2.33-5.36,4.05-3.52,2.57-4.6,3.17-4.48,3.79.15.79,2.23,1.6,11.91,1.29-4.46,1.5-8.13,2.8-10.86,3.79-1.65.6-3.65,1.35-3.63,2.29.02.76,1.35,1.32,2.42,1.75,1.42.57,3.71,1.24,6.86,1.08-5.68,3.16-11.35,6.32-17.03,9.49l18.55,16.73Z"/>
              <g>
                <polyline class="cls-4" points="116.46 43.29 124.92 43.73 129.29 42.69"/>
                <path class="cls-17" d="M116.46,43.29c2.77-.84,5.67-.81,8.51-.48,0,0-.26.02-.26.02,1.52-.23,3.03-.35,4.59-.15-1.38.88-2.85,1.62-4.42,1.97-2.86.04-5.75-.24-8.41-1.36h0Z"/>
              </g>
              <g>
                <polyline class="cls-4" points="123.4 29.63 129.49 28.54 132.43 27.08"/>
                <path class="cls-17" d="M123.4,29.63c1.73-1.28,3.83-1.82,5.93-1.99,0,0-.25.08-.25.08,1.08-.39,2.16-.66,3.35-.64-.77.98-1.67,1.87-2.78,2.38-2.03.56-4.19.78-6.25.17h0Z"/>
              </g>
              <g>
                <polyline class="cls-4" points="127.65 17.79 133.35 15.39 135.9 13.31"/>
                <path class="cls-17" d="M127.65,17.79c1.4-1.63,3.33-2.61,5.35-3.25,0,0-.23.14-.23.14.97-.62,1.96-1.12,3.13-1.37-.53,1.13-1.21,2.19-2.19,2.93-1.86.99-3.91,1.69-6.06,1.55h0Z"/>
              </g>
            </g>
          </g>
          <polygon class="cls-15" points="83.38 120.72 28.49 68.2 82.62 24.72 142.27 68.2 83.38 120.72"/>
          <g id="Bochechas">
            <polygon class="cls-14" points="141.82 68.81 96.23 109.68 98.95 86.03 104.26 78.79 115.28 75.08 120.87 67.16 141.82 68.81"/>
            <polygon class="cls-14" points="28.32 68.06 72.39 110.56 70.52 86.83 65.49 79.41 54.61 75.3 49.31 67.18 28.32 68.06"/>
          </g>
          <g id="Olhos">
            <g>
              <path class="cls-3" d="M96.62,72.78c-.18,0-.36-.05-.52-.15-.3-.18-.48-.5-.48-.85v-8.3c0-.55.45-1,1-1h16.44c.46,0,.87.32.97.77.11.45-.11.92-.52,1.12l-16.44,8.3c-.14.07-.3.11-.45.11Z"/>
              <path class="cls-7" d="M113.07,63.48l-16.44,8.3v-8.3h16.44M113.07,61.48h-16.44c-1.1,0-2,.9-2,2v8.3c0,.69.36,1.34.95,1.7.32.2.68.3,1.05.3.31,0,.62-.07.9-.21l16.44-8.3c.83-.42,1.26-1.35,1.04-2.25s-1.02-1.54-1.95-1.54h0ZM113.07,65.48h0,0Z"/>
            </g>
            <g>
              <path class="cls-3" d="M74,72.78c-.15,0-.31-.04-.45-.11l-16.44-8.3c-.41-.21-.63-.67-.52-1.12.11-.45.51-.77.97-.77h16.44c.55,0,1,.45,1,1v8.3c0,.35-.18.67-.48.85-.16.1-.34.15-.52.15Z"/>
              <path class="cls-7" d="M74,63.48v8.3l-16.44-8.3h16.44M74,61.48h-16.44c-.93,0-1.73.64-1.95,1.54s.22,1.83,1.04,2.25l16.44,8.3c.28.14.59.21.9.21.36,0,.73-.1,1.05-.3.59-.36.95-1.01.95-1.7v-8.3c0-1.1-.9-2-2-2h0Z"/>
            </g>
          </g>
          <g id="Pelos-4" data-name="Pelos">
            <g>
              <g>
                <line class="cls-15" x1="49.88" y1="75.82" x2="44.45" y2="76.78"/>
                <path class="cls-18" d="M49.9,75.92c-.84.45-1.71.84-2.6,1.17-.44.16-.85.5-1.32.44-.48-.05-.97-.18-1.52-.65l-.03-.2c.69-1.14,1.44-1.36,2.6-1.17.95,0,1.89.08,2.84.21,0,0,.03.2.03.2h0Z"/>
              </g>
              <g>
                <line class="cls-15" x1="53.5" y1="79.64" x2="49.28" y2="83.19"/>
                <path class="cls-18" d="M53.56,79.72c-.51.81-1.06,1.58-1.66,2.31-.3.36-.48.86-.93,1.04-.44.19-.93.33-1.64.2l-.13-.15c.03-1.33.56-1.9,1.66-2.31.82-.47,1.68-.88,2.56-1.24,0,0,.13.15.13.15h0Z"/>
              </g>
              <g>
                <line class="cls-15" x1="57.3" y1="83.89" x2="56.82" y2="89.39"/>
                <path class="cls-18" d="M57.4,83.9c.21.93.37,1.87.46,2.81.04.47.27.95.08,1.39-.17.45-.43.89-1.02,1.3l-.2-.02c-.92-.96-.94-1.74-.46-2.81.25-.91.57-1.81.94-2.69,0,0,.2.02.2.02h0Z"/>
              </g>
            </g>
            <g>
              <g>
                <line class="cls-15" x1="116.24" y1="75.81" x2="121.67" y2="76.78"/>
                <path class="cls-18" d="M116.25,75.71c.94-.13,1.89-.2,2.84-.21.47,0,.97-.18,1.39.04.43.21.85.5,1.2,1.13l-.03.2c-1.04.83-1.82.79-2.84.21-.89-.33-1.75-.73-2.6-1.17,0,0,.03-.2.03-.2h0Z"/>
              </g>
              <g>
                <line class="cls-15" x1="112.62" y1="79.63" x2="116.84" y2="83.19"/>
                <path class="cls-18" d="M112.69,79.55c.88.36,1.74.77,2.56,1.24.41.23.93.33,1.18.74.27.4.48.86.48,1.58l-.13.15c-1.32.2-1.97-.23-2.56-1.24-.6-.73-1.15-1.51-1.66-2.31,0,0,.13-.15.13-.15h0Z"/>
              </g>
              <g>
                <line class="cls-15" x1="108.82" y1="83.89" x2="109.3" y2="89.39"/>
                <path class="cls-18" d="M108.92,83.88c.37.88.69,1.77.94,2.69.12.45.43.89.32,1.36-.09.47-.27.95-.78,1.45l-.2.02c-1.08-.79-1.23-1.55-.94-2.69.09-.94.25-1.88.46-2.81,0,0,.2-.02.2-.02h0Z"/>
              </g>
            </g>
          </g>
          <g id="Boca">
            <path class="cls-14" d="M86.3,121.42h-5.5s-8.41-11.27-8.41-11.27c3.79-.7,7.58-1.41,11.37-2.11l11.37,2.11-8.82,11.27Z"/>
          </g>
          <g id="Nariz">
            <path class="cls-3" d="M86.52,112.44c-.14.55-.72.47-1.67,1.57-.62.73-.75,1.2-1.1,1.19-.38-.01-.45-.57-1.07-1.31-.86-1.02-1.53-.9-1.69-1.46-.27-.91,1.05-2.76,2.76-2.76,1.7,0,3.01,1.82,2.76,2.76Z"/>
          </g>
          <g id="Oculos">
            <ellipse class="cls-16" cx="98.36" cy="86.56" rx="5.41" ry="5.2"/>
            <ellipse class="cls-16" cx="72.98" cy="86.56" rx="5.41" ry="5.2"/>
            <circle class="cls-13" cx="72.36" cy="86.09" r="5.37"/>
            <circle class="cls-13" cx="98.33" cy="87.2" r="5.37"/>
            <rect class="cls-12" x="77.74" y="86.09" width="14.76" height="1.44"/>
          </g>
          <polygon class="cls-6" points="83.58 58.2 70.69 44.42 83.58 30.64 96.47 44.42 83.58 58.2"/>
          <g class="cls-11">
            <path class="cls-6" d="M70.3,52.74c-1.19-1.52-1.98-3.29-2.63-5.09-.05-1.01-.05-2.02.12-3.06.39.96.61,1.94.79,2.92.61,1.03,1.53,3.55,1.73,5.23h0Z"/>
          </g>
          <g class="cls-11">
            <path class="cls-6" d="M68.66,52.29c-1.54-1.17-2.75-2.68-3.84-4.26-.3-.96-.56-1.94-.66-2.99.62.83,1.08,1.72,1.5,2.62.85.84,2.38,3.04,3,4.62h0Z"/>
          </g>
          <g class="cls-11">
            <path class="cls-6" d="M98,52.74c.2-1.68,1.12-4.21,1.73-5.23.17-.98.4-1.96.79-2.92.17,1.03.17,2.05.12,3.06-.65,1.8-1.45,3.57-2.63,5.09h0Z"/>
          </g>
          <g class="cls-11">
            <path class="cls-6" d="M99.64,52.29c.62-1.57,2.15-3.79,3-4.62.42-.91.88-1.79,1.5-2.62-.1,1.04-.35,2.02-.66,2.99-1.09,1.58-2.31,3.08-3.84,4.26h0Z"/>
          </g>
        </g>
        <g id="Patas_2" data-name="Patas 2">
          <g id="Pata_dianteira_2" data-name="Pata dianteira 2">
            <polygon class="cls-15" points="93.11 257.29 103.78 258.98 131.04 199.81 138.08 173.24 116.84 169.69 93.11 257.29"/>
            <path class="cls-3" d="M93.56,255.14c-2.84.64-5.22,1.27-7.04,1.78-4.75,1.34-5.89,1.94-6.81,2.96-1.49,1.65-1.84,3.71-1.93,5.04h25.56l27.7-65.11,1.59-5.57-10.84,6.46-4.22,7.51h-4.22l.67-9.73-6.22,4.22-14.22,52.44Z"/>
          </g>
          <g id="Pata_traseira_2" data-name="Pata traseira 2">
            <path class="cls-15" d="M221.49,230.8c2.77,16.98-4.89,30.53-7.64,34.93h-81.63c.96-7.91,1.37-8.53,1.37-8.53,3.2-4.8,13.21-.65,15.56-4.44.88-1.43.81-4.21-3.44-10.11-2.24-3.11-4.28-7.08-4.81-11.85-1.96-17.66,17.35-40.41,40.3-40.3,22.52.11,37.34,22.21,40.3,40.3Z"/>
            <path class="cls-3" d="M148.41,254.05c-8.86-.42-16.15-.08-21.48.38-5.16.45-8.74,1.02-10.81,3.85-1.82,2.49-1.66,5.61-1.38,7.44h38.05c1.21-2.25,2.42-4.51,3.63-6.76l-13.04-.98c1.68-1.31,3.36-2.63,5.04-3.94Z"/>
          </g>
          <g>
            <g class="cls-19">
              <line class="cls-15" x1="156.66" y1="231.95" x2="154.12" y2="236.85"/>
              <path class="cls-6" d="M156.74,231.99c-.16.94-.37,1.87-.65,2.77-.14.45-.11.98-.46,1.32-.33.35-.73.66-1.43.81l-.18-.09c-.49-1.24-.21-1.97.65-2.77.58-.75,1.21-1.46,1.89-2.13,0,0,.18.09.18.09h0Z"/>
            </g>
            <g class="cls-19">
              <line class="cls-15" x1="162.6" y1="231.32" x2="162.46" y2="236.84"/>
              <path class="cls-6" d="M162.7,231.33c.27.91.49,1.84.63,2.78.07.46.33.93.17,1.38-.15.46-.37.91-.93,1.36,0,0-.2,0-.2,0-.98-.9-1.05-1.68-.63-2.78.19-.93.45-1.84.77-2.74,0,0,.2,0,.2,0h0Z"/>
            </g>
            <g class="cls-19">
              <line class="cls-15" x1="168.8" y1="230.95" x2="171.56" y2="235.73"/>
              <path class="cls-6" d="M168.89,230.9c.71.64,1.37,1.32,1.99,2.04.3.36.76.62.86,1.09.11.47.16.97-.09,1.65l-.17.1c-1.31-.26-1.77-.89-1.99-2.04-.32-.89-.57-1.81-.78-2.74,0,0,.17-.1.17-.1h0Z"/>
            </g>
            <g class="cls-19">
              <line class="cls-15" x1="159.36" y1="212.81" x2="155.42" y2="215.79"/>
              <path class="cls-6" d="M159.42,212.89c-.47.72-.98,1.41-1.55,2.05-.28.32-.45.77-.86.9-.41.14-.87.22-1.53.03l-.12-.16c.07-1.39.5-1.72,1.55-2.05.77-.37,1.57-.67,2.39-.93,0,0,.12.16.12.16h0Z"/>
            </g>
            <g class="cls-19">
              <line class="cls-15" x1="164.79" y1="214.14" x2="162.75" y2="218.31"/>
              <path class="cls-6" d="M164.88,214.18c-.07.81-.2,1.61-.39,2.39-.09.38-.03.85-.33,1.13-.29.29-.65.54-1.32.65,0,0-.18-.09-.18-.09-.62-1.28-.32-1.71.39-2.39.5-.63,1.05-1.22,1.65-1.78,0,0,.18.09.18.09h0Z"/>
            </g>
            <g class="cls-19">
              <line class="cls-15" x1="170.37" y1="215.73" x2="171.13" y2="220.22"/>
              <path class="cls-6" d="M170.47,215.72c.41.68.77,1.39,1.07,2.13.15.36.47.69.39,1.09-.07.4-.22.81-.7,1.27l-.2.03c-.61-.28-.88-.62-1.08-.97-.21-.35-.01-.77,0-1.15.04-.79.15-1.58.31-2.36,0,0,.2-.03.2-.03h0Z"/>
            </g>
            <g class="cls-19">
              <line class="cls-15" x1="163.62" y1="251.53" x2="163.28" y2="255.94"/>
              <path class="cls-6" d="M163.72,251.54c.23.74.41,1.5.53,2.26.06.37.29.76.11,1.12-.16.36-.4.71-.98,1.03l-.2-.02c-.52-.41-.71-.8-.81-1.17-.12-.38.17-.73.29-1.09.23-.74.52-1.45.87-2.15,0,0,.2.02.2.02h0Z"/>
            </g>
            <g class="cls-19">
              <line class="cls-15" x1="168.1" y1="249.19" x2="169.86" y2="253.3"/>
              <path class="cls-6" d="M168.19,249.15c.55.56,1.07,1.15,1.52,1.78.22.31.61.55.62.95.02.4-.03.82-.39,1.38l-.18.08c-.65-.13-1-.38-1.27-.67-.28-.28-.19-.73-.26-1.11-.14-.77-.22-1.54-.24-2.33,0,0,.18-.08.18-.08h0Z"/>
            </g>
            <g class="cls-19">
              <line class="cls-15" x1="172.87" y1="246.96" x2="176.66" y2="249.61"/>
              <path class="cls-6" d="M172.92,246.88c.79.2,1.56.44,2.3.75.36.15.83.16,1.06.5.24.33.43.73.43,1.4l-.11.16c-1.36.42-1.74.05-2.3-.75-.55-.59-1.04-1.23-1.5-1.9,0,0,.11-.16.11-.16h0Z"/>
            </g>
          </g>
        </g>
      </g>
    </g>
  </g>
</svg>