<svg width="223" height="266" viewBox="0 0 223 266" fill="none" xmlns="http://www.w3.org/2000/svg">
<g clip-path="url(#clip0_4265_8742)">
<path d="M194.43 230.62C206.96 211.44 204.04 190.06 202.73 182.89C187.38 189.63 166.96 196.86 142.23 201.19C112.4 206.41 86.6898 205.6 68.0298 203.55C59.4298 203.69 47.2798 202.96 33.3798 198.99C18.6798 194.79 7.48976 188.52 0.119762 183.6C-0.000238203 190.97 0.769761 206.87 10.4798 223.25C25.2398 248.13 49.7798 255.8 55.6798 257.48C73.3898 262.3 123.03 273.66 165.37 253.79C184.74 244.7 192.29 233.91 194.44 230.61L194.43 230.62Z" fill="url(#paint0_linear_4265_8742)"/>
<path d="M68.11 203.26C59.49 203.39 47.2999 202.63 33.3699 198.6C18.6299 194.34 7.39995 187.99 -4.77899e-05 183.02C-0.110048 190.46 0.679952 206.52 10.44 223.06C25.27 248.2 49.88 255.98 55.79 257.68L70.8 237.49L50.79 232.16L70.28 216.88L52.66 215.64L68.1 203.26H68.11Z" fill="#A87959"/>
<path d="M105.41 217.93C100.68 220.19 95.6198 221.62 90.5098 222.72C87.7298 222.5 84.9798 222.18 82.2598 221.52C84.5598 221.1 88.8998 220.82 90.2298 220.92C95.1798 219.44 100.24 218.25 105.41 217.94V217.93Z" fill="#C74D00"/>
<path d="M134.129 229.07C129.399 231.33 124.339 232.76 119.229 233.86C116.449 233.64 113.699 233.32 110.979 232.66C113.279 232.24 117.619 231.96 118.949 232.06C123.899 230.58 128.959 229.39 134.129 229.08V229.07Z" fill="#C74D00"/>
<path d="M106.24 247.82C101.51 250.08 96.4498 251.51 91.3398 252.61C88.5598 252.39 85.8098 252.07 83.0898 251.41C85.3898 250.99 89.7298 250.71 91.0598 250.81C96.0098 249.33 101.07 248.14 106.24 247.83V247.82Z" fill="#C74D00"/>
<path d="M155.929 239.67C151.199 241.93 146.139 243.36 141.029 244.46C138.249 244.24 135.499 243.92 132.779 243.26C135.079 242.84 139.419 242.56 140.749 242.66C145.699 241.18 150.759 239.99 155.929 239.68V239.67Z" fill="#C74D00"/>
<path d="M166.7 211.58C161.97 213.84 156.91 215.27 151.8 216.37C149.02 216.15 146.27 215.83 143.55 215.17C145.85 214.75 150.19 214.47 151.52 214.57C156.47 213.09 161.53 211.9 166.7 211.59V211.58Z" fill="#C74D00"/>
<path d="M193.52 215.33C189.71 218.93 185.33 221.84 180.81 224.45C178.1 225.09 175.38 225.63 172.58 225.83C175.04 224.54 177.6 223.58 180.22 222.71C183.22 220.42 189.07 217.03 193.52 215.33Z" fill="#C74D00"/>
<path d="M42.4998 245.63C39.7698 243.65 37.1598 241.53 34.5898 239.37L34.9898 238.07C38.5998 237.33 42.2398 236.72 45.8798 236.12L45.4298 237.91C43.8298 236.68 42.2098 235.48 40.6398 234.23C39.0498 232.99 37.4798 231.72 35.9298 230.43L36.0498 229.22C37.4398 228.64 38.8298 228.08 40.2398 227.54C41.6398 227 43.0598 226.47 44.4898 225.99C41.9398 227.6 39.3098 229.07 36.6598 230.5L36.7798 229.29C40.1298 231.54 43.3898 233.91 46.6298 236.31L46.1798 238.1C44.3498 238.36 42.5298 238.65 40.7098 238.89C38.8798 239.12 37.0498 239.37 35.2198 239.56L35.6198 238.26C37.9798 240.64 40.3098 243.07 42.5098 245.63H42.4998Z" fill="#BDA497"/>
<path d="M20.57 213.19C16.86 212.95 13.23 212.06 9.68004 211.02L10.88 209.69C12.1 212.84 13.19 216.02 13.74 219.39C12.74 217.99 11.92 216.51 11.15 215.01C10.38 213.51 9.68004 211.99 9.04004 210.44L10.24 209.11C13.79 210.16 17.32 211.38 20.57 213.19Z" fill="#BDA497"/>
<path d="M45.1304 207.41C41.6004 208.59 37.9104 209.14 34.2204 209.51L34.8304 207.82C37.1504 210.28 39.3604 212.81 41.1304 215.72C39.6804 214.8 38.3604 213.74 37.0804 212.65C35.8004 211.56 34.5804 210.4 33.4004 209.21L34.0104 207.52C37.6904 207.15 41.4204 206.96 45.1204 207.41H45.1304Z" fill="#BDA497"/>
<path d="M168.69 222.02H132.95V260.37H168.69V222.02Z" fill="#BB4320"/>
<path d="M76.1906 260.37L86.7906 258.3L92.1106 193.37L89.5206 157.73L67.8506 157.12L76.1906 260.37Z" fill="#BB4320"/>
<path d="M71.7502 206.82L75.7802 258.04C72.9502 258.72 72.7002 259.13 70.8902 259.66C66.1602 261.06 67.0602 261.14 66.1502 262.18C64.6802 263.85 67.0402 265.74 67.0402 265.74L87.8502 264.9L90.8902 207.96L71.7502 206.82Z" fill="#54292A"/>
<path d="M213.741 260.37C230.391 246.56 212.031 199.34 200.861 178.52C196.191 169.8 178.391 137.68 141.021 120.72C134.451 117.74 128.701 115.88 124.631 114.72L125.121 82.2498L49.2705 82.7598L50.7805 149.94C65.7505 174.1 92.4905 209.48 136.771 236.27C155.211 247.43 197.241 274.05 213.751 260.36L213.741 260.37Z" fill="url(#paint1_linear_4265_8742)"/>
<path d="M68.7703 175.7C62.3603 167.12 55.9503 158.53 49.5403 149.95L48.0303 82.7699L110.42 82.3499C112 100.05 93.5303 115.48 95.1103 133.18" fill="#BB4320"/>
<path d="M59.0705 81.8398L60.6305 148.86C61.3905 156.81 63.1305 163.71 65.2505 169.61C71.4105 186.72 146.531 251.07 151.071 252.35C151.511 242.72 150.631 218.27 151.071 208.64L163.511 195.53L137.511 195.97L132.401 181.08L109.731 174.19L112.401 146.86L95.0705 150.64L117.511 113.86L107.951 113.17L120.621 81.8298H59.0605L59.0705 81.8398Z" fill="#F1DFD2"/>
<path d="M156.78 238.7L149.68 253.77L125.92 232.19L166.69 194.24L156.78 238.7Z" fill="#A87959"/>
<path d="M61.1403 149.26L116.84 91.4597L59.0703 93.5697L61.1403 149.26Z" fill="#A87959"/>
<path d="M76.5908 142.83C76.7108 143.78 76.7708 144.72 76.7708 145.67C76.7708 146.14 76.9409 146.64 76.7109 147.06C76.4909 147.49 76.2009 147.9 75.5709 148.25L75.3709 148.21C74.5509 147.16 74.6009 146.38 75.1909 145.37C75.5309 144.49 75.9309 143.63 76.3909 142.79L76.5908 142.83Z" fill="#C28166"/>
<path d="M72.4504 142.1C72.2004 143.02 71.9004 143.92 71.5404 144.8C71.3604 145.23 71.3304 145.76 70.9604 146.07C70.6004 146.38 70.1704 146.65 69.4504 146.74L69.2804 146.63C68.9204 145.35 69.2604 144.65 70.1904 143.93C70.8404 143.24 71.5404 142.6 72.2804 141.99L72.4504 142.1Z" fill="#C28166"/>
<path d="M69.9504 137.05C69.3404 137.79 68.7004 138.48 68.0004 139.13C67.6604 139.45 67.4104 139.92 66.9504 140.04C66.4904 140.17 65.9904 140.24 65.3004 140.03L65.1904 139.86C65.3904 138.54 65.9904 138.05 67.1404 137.78C68.0204 137.42 68.9204 137.12 69.8404 136.88L69.9504 137.05Z" fill="#F1DFD2"/>
<path d="M90.1705 144.04C90.7505 144.8 91.2905 145.58 91.7605 146.4C92.0005 146.8 92.4005 147.15 92.4105 147.63C92.4405 148.11 92.3905 148.61 92.0305 149.23L91.8405 149.3C90.6005 148.81 90.2505 148.11 90.2505 146.94C90.0905 146.01 90.0105 145.06 89.9805 144.11L90.1705 144.04Z" fill="#C28166"/>
<path d="M93.7308 139.23C94.5808 139.65 95.4108 140.13 96.1908 140.66C96.5808 140.92 97.0908 141.05 97.3208 141.48C97.5608 141.9 97.7408 142.37 97.6808 143.09L97.5408 143.23C96.2108 143.33 95.5908 142.86 95.0808 141.8C94.5308 141.03 94.0408 140.21 93.5908 139.37L93.7308 139.23Z" fill="#C28166"/>
<path d="M97.6306 134.4C98.5806 134.32 99.5306 134.29 100.481 134.33C100.951 134.35 101.451 134.2 101.871 134.44C102.291 134.67 102.691 134.98 103.021 135.62L102.981 135.81C101.901 136.59 101.121 136.51 100.131 135.88C99.2606 135.51 98.4206 135.07 97.6006 134.58L97.6406 134.39L97.6306 134.4Z" fill="#C28166"/>
<path d="M83.6604 169.36C83.4004 170.28 83.1004 171.18 82.7204 172.05C82.5404 172.48 82.5004 173.01 82.1304 173.31C81.7604 173.62 81.3304 173.89 80.6204 173.97L80.4504 173.86C80.1004 172.57 80.4504 171.88 81.3904 171.17C82.0504 170.49 82.7504 169.85 83.5004 169.25L83.6704 169.36H83.6604Z" fill="#C28166"/>
<path d="M89.6507 169.33C89.8207 170.27 89.9407 171.21 89.9807 172.16C90.0007 172.63 90.2007 173.12 90.0007 173.55C89.8107 173.99 89.5307 174.42 88.9307 174.8L88.7307 174.77C87.8507 173.77 87.8607 172.99 88.4007 171.94C88.6907 171.04 89.0507 170.16 89.4507 169.3L89.6507 169.33Z" fill="#C28166"/>
<path d="M95.8509 169.57C96.4909 170.28 97.0809 171.03 97.6109 171.81C97.8709 172.2 98.3009 172.51 98.3509 172.99C98.4109 173.47 98.4009 173.97 98.0909 174.62L97.9109 174.7C96.6409 174.3 96.2409 173.63 96.1509 172.46C95.9309 171.54 95.7709 170.6 95.6709 169.65L95.8509 169.57Z" fill="#C28166"/>
<path d="M28.4902 68.2C46.7902 84.3 65.0802 100.4 83.3802 116.5C103.01 100.4 122.64 84.3 142.27 68.2L112.62 24.73H49.8802L28.4902 68.2Z" fill="#E26225"/>
<path d="M32.7998 64.7999C30.9498 59.0699 29.2598 52.6599 27.9698 45.6199C24.9098 28.9899 25.0698 14.2599 26.1898 2.69987C26.0998 1.85987 26.5198 1.02987 27.2598 0.60987C27.9498 0.21987 28.8498 0.19987 29.5998 0.74987L68.9498 30.1299L32.8098 64.7999H32.7998Z" fill="#542918" stroke="#542918" stroke-width="0.5" stroke-linecap="round" stroke-linejoin="round"/>
<path d="M41.1402 58.1999L31.0402 38.1799C30.1902 29.5999 29.3402 21.0299 28.4902 12.4499C28.4402 12.1999 27.2902 6.29986 29.2002 5.40986C30.2102 4.93986 31.6902 6.04986 34.4502 8.14986C36.7002 9.85986 38.3802 11.4699 39.4902 12.5899C39.0402 13.0699 38.5902 13.5499 38.1502 14.0199C39.3302 14.8799 41.2302 16.2599 43.6402 17.8999C47.2402 20.3599 48.3302 20.9299 48.2402 21.5499C48.1202 22.3399 46.0602 23.2199 36.3802 23.2099C40.8902 24.5699 44.5902 25.7499 47.3502 26.6599C49.0202 27.2099 51.0402 27.8899 51.0402 28.8399C51.0402 29.5999 49.7302 30.1999 48.6802 30.6599C47.2802 31.2799 45.0102 32.0099 41.8602 31.9499C47.6302 34.9299 53.4002 37.9199 59.1802 40.8999L41.1502 58.1899L41.1402 58.1999Z" fill="#F1DFD2"/>
<path d="M42.3298 29.4599L36.2398 28.3699L33.2998 26.8999" fill="#F1DFD2"/>
<path d="M42.3298 29.4599C40.2598 30.0699 38.1098 29.8499 36.0798 29.2899C34.9698 28.7799 34.0698 27.8999 33.2998 26.9099C33.9198 26.8999 34.4998 26.9699 35.0498 27.0899C35.6098 27.1999 36.1398 27.3599 36.6598 27.5499L36.4098 27.4699C38.5098 27.6399 40.6098 28.1799 42.3398 29.4599H42.3298Z" fill="#BDA497"/>
<path d="M38.0801 17.6199L32.3801 15.2199L29.8301 13.1399" fill="#F1DFD2"/>
<path d="M38.0801 17.6199C35.9301 17.7599 33.8801 17.0699 32.0201 16.0699C31.0501 15.3299 30.3701 14.2699 29.8301 13.1399C30.4401 13.2599 30.9801 13.4599 31.4901 13.6999C32.0101 13.9299 32.4901 14.2099 32.9501 14.5099L32.7201 14.3699C34.7301 14.9999 36.6601 15.9799 38.0701 17.6199H38.0801Z" fill="#BDA497"/>
<path d="M49.2802 43.1199C46.6102 44.2399 43.7202 44.5199 40.8702 44.4799C39.2902 44.1299 37.8202 43.3899 36.4502 42.5099C38.0102 42.3099 39.5202 42.4299 41.0402 42.6599L40.7802 42.6399C43.6202 42.2999 46.5202 42.2799 49.2902 43.1199H49.2802Z" fill="#BDA497"/>
<path d="M135.719 64.8699C137.289 59.0599 138.679 52.5699 139.639 45.4799C141.909 28.7299 141.059 14.0199 139.389 2.51993C139.439 1.66993 138.979 0.869933 138.219 0.489933C137.509 0.129933 136.609 0.149933 135.889 0.749933L97.9795 31.9499L135.719 64.8699Z" fill="#542918" stroke="#542918" stroke-width="0.5" stroke-linecap="round" stroke-linejoin="round"/>
<path d="M126.4 58.36L135.88 38.03C136.46 29.43 137.05 20.83 137.63 12.23C137.67 11.98 138.64 6.05003 136.7 5.22003C135.68 4.78003 134.23 5.93003 131.53 8.12003C129.34 9.90003 127.7 11.56 126.63 12.72C127.09 13.18 127.55 13.65 128.02 14.11C126.87 15.01 125.01 16.44 122.66 18.16C119.14 20.73 118.06 21.33 118.18 21.95C118.33 22.74 120.41 23.55 130.09 23.24C125.63 24.74 121.96 26.04 119.23 27.03C117.58 27.63 115.58 28.38 115.6 29.32C115.62 30.08 116.95 30.64 118.02 31.07C119.44 31.64 121.73 32.31 124.88 32.15C119.2 35.31 113.53 38.47 107.85 41.64L126.4 58.37V58.36Z" fill="#F1DFD2"/>
<path d="M116.46 43.2899L124.92 43.7299L129.29 42.6899" fill="#F1DFD2"/>
<path d="M116.46 43.29C119.23 42.45 122.13 42.48 124.97 42.81L124.71 42.83C126.23 42.6 127.74 42.48 129.3 42.68C127.92 43.56 126.45 44.3 124.88 44.65C122.02 44.69 119.13 44.41 116.47 43.29H116.46Z" fill="#BDA497"/>
<path d="M123.399 29.6298L129.489 28.5398L132.429 27.0798" fill="#F1DFD2"/>
<path d="M123.399 29.6299C125.129 28.3499 127.229 27.8099 129.329 27.6399L129.079 27.7199C130.159 27.3299 131.239 27.0599 132.429 27.0799C131.659 28.0599 130.759 28.9499 129.649 29.4599C127.619 30.0199 125.459 30.2399 123.399 29.6299Z" fill="#BDA497"/>
<path d="M127.649 17.7898L133.349 15.3898L135.899 13.3098" fill="#F1DFD2"/>
<path d="M127.649 17.7898C129.049 16.1598 130.979 15.1798 132.999 14.5398L132.769 14.6798C133.739 14.0598 134.729 13.5598 135.899 13.3098C135.369 14.4398 134.689 15.4998 133.709 16.2398C131.849 17.2298 129.799 17.9298 127.649 17.7898Z" fill="#BDA497"/>
<path d="M83.3802 120.72L28.4902 68.2L82.6202 24.72L142.27 68.2L83.3802 120.72Z" fill="#E26225"/>
<path d="M141.819 68.8099L96.2295 109.68L98.9495 86.0299L104.259 78.7899L115.279 75.0799L120.869 67.1599L141.819 68.8099Z" fill="#F1DFD2"/>
<path d="M28.3193 68.0599L72.3893 110.56L70.5193 86.8299L65.4893 79.4099L54.6093 75.2999L49.3093 67.1799L28.3193 68.0599Z" fill="#F1DFD2"/>
<path d="M96.6201 72.78C96.4401 72.78 96.2601 72.73 96.1001 72.63C95.8001 72.45 95.6201 72.13 95.6201 71.78V63.48C95.6201 62.93 96.0701 62.48 96.6201 62.48H113.06C113.52 62.48 113.93 62.8 114.03 63.25C114.14 63.7 113.92 64.17 113.51 64.37L97.0701 72.67C96.9301 72.74 96.7701 72.78 96.6201 72.78Z" fill="#542918"/>
<path d="M113.07 63.48L96.6299 71.78V63.48H113.07ZM113.07 61.48H96.6299C95.5299 61.48 94.6299 62.38 94.6299 63.48V71.78C94.6299 72.47 94.9899 73.12 95.5799 73.48C95.8999 73.68 96.2599 73.78 96.6299 73.78C96.9399 73.78 97.2499 73.71 97.5299 73.57L113.97 65.27C114.8 64.85 115.23 63.92 115.01 63.02C114.79 62.12 113.99 61.48 113.06 61.48H113.07Z" fill="#F1B69A"/>
<path d="M73.9997 72.78C73.8497 72.78 73.6897 72.74 73.5497 72.67L57.1097 64.37C56.6997 64.16 56.4797 63.7 56.5897 63.25C56.6997 62.8 57.0997 62.48 57.5597 62.48H73.9997C74.5497 62.48 74.9997 62.93 74.9997 63.48V71.78C74.9997 72.13 74.8197 72.45 74.5197 72.63C74.3597 72.73 74.1797 72.78 73.9997 72.78Z" fill="#542918"/>
<path d="M74.0001 63.48V71.78L57.5601 63.48H74.0001ZM74.0001 61.48H57.5601C56.6301 61.48 55.8301 62.12 55.6101 63.02C55.3901 63.92 55.8301 64.85 56.6501 65.27L73.0901 73.57C73.3701 73.71 73.6801 73.78 73.9901 73.78C74.3501 73.78 74.7201 73.68 75.0401 73.48C75.6301 73.12 75.9901 72.47 75.9901 71.78V63.48C75.9901 62.38 75.0901 61.48 73.9901 61.48H74.0001Z" fill="#F1B69A"/>
<path d="M49.8997 75.92C49.0597 76.37 48.1897 76.76 47.2997 77.09C46.8597 77.25 46.4497 77.59 45.9797 77.53C45.4997 77.48 45.0097 77.35 44.4597 76.88L44.4297 76.68C45.1197 75.54 45.8697 75.32 47.0297 75.51C47.9797 75.51 48.9197 75.59 49.8697 75.72L49.8997 75.92Z" fill="#C28166"/>
<path d="M53.5592 79.7201C53.0492 80.5301 52.4992 81.3001 51.8992 82.0301C51.5992 82.3901 51.4192 82.8901 50.9692 83.0701C50.5292 83.2601 50.0392 83.4001 49.3292 83.2701L49.1992 83.1201C49.2292 81.7901 49.7592 81.2201 50.8592 80.8101C51.6792 80.3401 52.5392 79.9301 53.4192 79.5701L53.5492 79.7201H53.5592Z" fill="#C28166"/>
<path d="M57.3999 83.8999C57.6099 84.8299 57.7699 85.7699 57.8599 86.7099C57.8999 87.1799 58.1299 87.6599 57.9399 88.0999C57.7699 88.5499 57.5099 88.9899 56.9199 89.3999L56.7199 89.3799C55.7999 88.4199 55.7799 87.6399 56.2599 86.5699C56.5099 85.6599 56.8299 84.7599 57.1999 83.8799L57.3999 83.8999Z" fill="#C28166"/>
<path d="M116.249 75.71C117.189 75.58 118.139 75.51 119.089 75.5C119.559 75.5 120.059 75.32 120.479 75.54C120.909 75.75 121.329 76.04 121.679 76.67L121.649 76.87C120.609 77.7 119.829 77.66 118.809 77.08C117.919 76.75 117.059 76.35 116.209 75.91L116.239 75.71H116.249Z" fill="#C28166"/>
<path d="M112.69 79.55C113.57 79.91 114.43 80.32 115.25 80.79C115.66 81.02 116.18 81.12 116.43 81.53C116.7 81.93 116.91 82.39 116.91 83.11L116.78 83.26C115.46 83.46 114.81 83.03 114.22 82.02C113.62 81.29 113.07 80.51 112.56 79.71L112.69 79.56V79.55Z" fill="#C28166"/>
<path d="M108.919 83.8799C109.289 84.7599 109.609 85.6499 109.859 86.5699C109.979 87.0199 110.289 87.4599 110.179 87.9299C110.089 88.3999 109.909 88.8799 109.399 89.3799L109.199 89.3999C108.119 88.6099 107.969 87.8499 108.259 86.7099C108.349 85.7699 108.509 84.8299 108.719 83.8999L108.919 83.8799Z" fill="#C28166"/>
<path d="M86.2997 121.42H80.7997L72.3896 110.15C76.1796 109.45 79.9697 108.74 83.7597 108.04L95.1296 110.15L86.3096 121.42H86.2997Z" fill="#F1DFD2"/>
<path d="M86.5202 112.44C86.3802 112.99 85.8002 112.91 84.8502 114.01C84.2302 114.74 84.1002 115.21 83.7502 115.2C83.3702 115.19 83.3002 114.63 82.6802 113.89C81.8202 112.87 81.1502 112.99 80.9902 112.43C80.7202 111.52 82.0402 109.67 83.7502 109.67C85.4502 109.67 86.7602 111.49 86.5102 112.43L86.5202 112.44Z" fill="#542918"/>
<path opacity="0.36" d="M98.3602 91.7599C101.348 91.7599 103.77 89.4317 103.77 86.5599C103.77 83.688 101.348 81.3599 98.3602 81.3599C95.3723 81.3599 92.9502 83.688 92.9502 86.5599C92.9502 89.4317 95.3723 91.7599 98.3602 91.7599Z" fill="#666666"/>
<path opacity="0.36" d="M72.9803 91.7599C75.9682 91.7599 78.3903 89.4317 78.3903 86.5599C78.3903 83.688 75.9682 81.3599 72.9803 81.3599C69.9925 81.3599 67.5703 83.688 67.5703 86.5599C67.5703 89.4317 69.9925 91.7599 72.9803 91.7599Z" fill="#666666"/>
<path d="M72.3602 91.46C75.326 91.46 77.7302 89.0557 77.7302 86.09C77.7302 83.1242 75.326 80.72 72.3602 80.72C69.3945 80.72 66.9902 83.1242 66.9902 86.09C66.9902 89.0557 69.3945 91.46 72.3602 91.46Z" stroke="#544D59" stroke-miterlimit="10"/>
<path d="M98.33 92.5701C101.296 92.5701 103.7 90.1658 103.7 87.2001C103.7 84.2343 101.296 81.8301 98.33 81.8301C95.3642 81.8301 92.96 84.2343 92.96 87.2001C92.96 90.1658 95.3642 92.5701 98.33 92.5701Z" stroke="#544D59" stroke-miterlimit="10"/>
<path d="M92.5002 86.0898H77.7402V87.5298H92.5002V86.0898Z" fill="#63595E" stroke="#544D59" stroke-miterlimit="10"/>
<path d="M83.5795 58.1999L70.6895 44.4199L83.5795 30.6399L96.4695 44.4199L83.5795 58.1999Z" fill="#BB4320"/>
<g opacity="0.63">
<path d="M70.2996 52.7398C69.1096 51.2198 68.3196 49.4498 67.6696 47.6498C67.6196 46.6398 67.6196 45.6298 67.7896 44.5898C68.1796 45.5498 68.3996 46.5298 68.5796 47.5098C69.1896 48.5398 70.1096 51.0598 70.3096 52.7398H70.2996Z" fill="#BB4320"/>
</g>
<g opacity="0.63">
<path d="M68.6602 52.29C67.1202 51.12 65.9102 49.61 64.8202 48.03C64.5202 47.07 64.2602 46.09 64.1602 45.04C64.7802 45.87 65.2402 46.76 65.6602 47.66C66.5102 48.5 68.0402 50.7 68.6602 52.28V52.29Z" fill="#BB4320"/>
</g>
<g opacity="0.63">
<path d="M98 52.7398C98.2 51.0598 99.12 48.5298 99.73 47.5098C99.9 46.5298 100.13 45.5498 100.52 44.5898C100.69 45.6198 100.69 46.6398 100.64 47.6498C99.99 49.4498 99.19 51.2198 98.01 52.7398H98Z" fill="#BB4320"/>
</g>
<g opacity="0.63">
<path d="M99.6396 52.2901C100.26 50.7201 101.79 48.5 102.64 47.67C103.06 46.76 103.52 45.88 104.14 45.05C104.04 46.09 103.79 47.0701 103.48 48.0401C102.39 49.6201 101.17 51.12 99.6396 52.3V52.2901Z" fill="#BB4320"/>
</g>
<path d="M93.1104 257.29L103.78 258.98L131.04 199.81L138.08 173.24L116.84 169.69L93.1104 257.29Z" fill="#E26225"/>
<path d="M93.5603 255.14C90.7203 255.78 88.3403 256.41 86.5203 256.92C81.7703 258.26 80.6303 258.86 79.7103 259.88C78.2203 261.53 77.8703 263.59 77.7803 264.92H103.34L131.04 199.81L132.63 194.24L121.79 200.7L117.57 208.21H113.35L114.02 198.48L107.8 202.7L93.5803 255.14H93.5603Z" fill="#542918"/>
<path d="M221.491 230.8C224.261 247.78 216.601 261.33 213.851 265.73H132.221C133.181 257.82 133.591 257.2 133.591 257.2C136.791 252.4 146.801 256.55 149.151 252.76C150.031 251.33 149.961 248.55 145.711 242.65C143.471 239.54 141.431 235.57 140.901 230.8C138.941 213.14 158.251 190.39 181.201 190.5C203.721 190.61 218.541 212.71 221.501 230.8H221.491Z" fill="#E26225"/>
<path d="M148.41 254.05C139.55 253.63 132.26 253.97 126.93 254.43C121.77 254.88 118.19 255.45 116.12 258.28C114.3 260.77 114.46 263.89 114.74 265.72H152.79C154 263.47 155.21 261.21 156.42 258.96L143.38 257.98C145.06 256.67 146.74 255.35 148.42 254.04L148.41 254.05Z" fill="#542918"/>
<g opacity="0.5">
<path d="M156.741 231.99C156.581 232.93 156.371 233.86 156.091 234.76C155.951 235.21 155.981 235.74 155.631 236.08C155.301 236.43 154.901 236.74 154.201 236.89L154.021 236.8C153.531 235.56 153.811 234.83 154.671 234.03C155.251 233.28 155.881 232.57 156.561 231.9L156.741 231.99Z" fill="#BB4320"/>
</g>
<g opacity="0.5">
<path d="M162.701 231.33C162.971 232.24 163.191 233.17 163.331 234.11C163.401 234.57 163.661 235.04 163.501 235.49C163.351 235.95 163.131 236.4 162.571 236.85H162.371C161.391 235.95 161.321 235.17 161.741 234.07C161.931 233.14 162.191 232.23 162.511 231.33H162.711H162.701Z" fill="#BB4320"/>
</g>
<g opacity="0.5">
<path d="M168.891 230.9C169.601 231.54 170.261 232.22 170.881 232.94C171.181 233.3 171.641 233.56 171.741 234.03C171.851 234.5 171.901 235 171.651 235.68L171.481 235.78C170.171 235.52 169.711 234.89 169.491 233.74C169.171 232.85 168.921 231.93 168.711 231L168.881 230.9H168.891Z" fill="#BB4320"/>
</g>
<g opacity="0.5">
<path d="M159.42 212.89C158.95 213.61 158.44 214.3 157.87 214.94C157.59 215.26 157.42 215.71 157.01 215.84C156.6 215.98 156.14 216.06 155.48 215.87L155.36 215.71C155.43 214.32 155.86 213.99 156.91 213.66C157.68 213.29 158.48 212.99 159.3 212.73L159.42 212.89Z" fill="#BB4320"/>
</g>
<g opacity="0.5">
<path d="M164.88 214.18C164.81 214.99 164.68 215.79 164.49 216.57C164.4 216.95 164.46 217.42 164.16 217.7C163.87 217.99 163.51 218.24 162.84 218.35L162.66 218.26C162.04 216.98 162.34 216.55 163.05 215.87C163.55 215.24 164.1 214.65 164.7 214.09L164.88 214.18Z" fill="#BB4320"/>
</g>
<g opacity="0.5">
<path d="M170.471 215.72C170.881 216.4 171.241 217.11 171.541 217.85C171.691 218.21 172.011 218.54 171.931 218.94C171.861 219.34 171.711 219.75 171.231 220.21L171.031 220.24C170.421 219.96 170.151 219.62 169.951 219.27C169.741 218.92 169.941 218.5 169.951 218.12C169.991 217.33 170.101 216.54 170.261 215.76L170.461 215.73L170.471 215.72Z" fill="#BB4320"/>
</g>
<g opacity="0.5">
<path d="M163.72 251.54C163.95 252.28 164.13 253.04 164.25 253.8C164.31 254.17 164.54 254.56 164.36 254.92C164.2 255.28 163.96 255.63 163.38 255.95L163.18 255.93C162.66 255.52 162.47 255.13 162.37 254.76C162.25 254.38 162.54 254.03 162.66 253.67C162.89 252.93 163.18 252.22 163.53 251.52L163.73 251.54H163.72Z" fill="#BB4320"/>
</g>
<g opacity="0.5">
<path d="M168.19 249.15C168.74 249.71 169.26 250.3 169.71 250.93C169.93 251.24 170.32 251.48 170.33 251.88C170.35 252.28 170.3 252.7 169.94 253.26L169.76 253.34C169.11 253.21 168.76 252.96 168.49 252.67C168.21 252.39 168.3 251.94 168.23 251.56C168.09 250.79 168.01 250.02 167.99 249.23L168.17 249.15H168.19Z" fill="#BB4320"/>
</g>
<g opacity="0.5">
<path d="M172.921 246.88C173.711 247.08 174.481 247.32 175.221 247.63C175.581 247.78 176.051 247.79 176.281 248.13C176.521 248.46 176.711 248.86 176.711 249.53L176.601 249.69C175.241 250.11 174.861 249.74 174.301 248.94C173.751 248.35 173.261 247.71 172.801 247.04L172.911 246.88H172.921Z" fill="#BB4320"/>
</g>
</g>
<defs>
<linearGradient id="paint0_linear_4265_8742" x1="0.109762" y1="224" x2="203.99" y2="224" gradientUnits="userSpaceOnUse">
<stop stop-color="#BB4320"/>
<stop offset="1" stop-color="#E26225"/>
</linearGradient>
<linearGradient id="paint1_linear_4265_8742" x1="49.3405" y1="82.6998" x2="220.42" y2="253.79" gradientUnits="userSpaceOnUse">
<stop stop-color="#BB4320"/>
<stop offset="0.51" stop-color="#E26225"/>
</linearGradient>
<clipPath id="clip0_4265_8742">
<rect width="222.09" height="265.73" fill="white"/>
</clipPath>
</defs>
</svg>
